<svg xmlns="http://www.w3.org/2000/svg" height="800" width="1200" viewBox="-52.419 -143.5085 454.298 861.051"><path fill="none" clip-rule="evenodd" d="M0 574.034V0l349.46.369v573.665"/><path d="M325.738 0c9.509 0 17.198 7.607 17.198 17.015V532.42c0 9.4-7.689 17.015-17.198 17.015H17.753c-9.5 0-17.191-7.614-17.191-17.015V17.015C.562 7.607 8.253 0 17.753 0h307.985" fill="#FFF"/><path d="M7.246 76.404h329.229V531.39c0 3.784-.646 6.123-3.198 8.661-2.77 2.753-5.2 3-9.586 3l-306.615.03c-2.416 0-4.269-.77-6.269-2.461-2.477-2.123-3.561-4.769-3.561-7.569V76.404" fill="#FFF200"/><path fill="#ED1C24" d="M7.246 53.513h329.229v23.375H7.246z"/><path fill="#FFF" d="M7.246 30.091h329.229v23.376H7.246z"/><path d="M16.553 6.315h310.4c4.971 0 9.555 4.792 9.555 9.469v14.922H7.246l.03-13.123v-1.092c0-5.291 4.077-9.653 9.277-10.176" fill="#009A4E"/><path d="M325.738 0c9.509 0 17.198 7.607 17.198 17.015V532.42c0 9.4-7.689 17.015-17.198 17.015H17.753c-9.5 0-17.191-7.614-17.191-17.015V17.015C.562 7.607 8.253 0 17.753 0h307.985m0 6.792H17.753c-5.708 0-10.322 4.584-10.322 10.223V532.42c0 5.646 4.615 10.199 10.322 10.199h307.985c5.709 0 10.323-4.553 10.323-10.199V17.015c0-5.638-4.614-10.223-10.323-10.223z"/><path d="M165.692 105.28s-.208 1.984-.661 3.146c-.446 1.076-1.608 1.8-1.531 2.522.077.708.831 1.562 2 2.153 1.146.6 1.607 1.062 2.784 1.362 1.092.27 2.477 1.069 2.869.154.393-.931-.199-2.062-.861-3.146-1.154-1.892-1.738-2.354-3.438-4.954-.362-.56-.646-1.161-1.162-1.237"/><path d="M157.069 309.693c.115-.339 2.838 1.385 4.253 2.216 2.977 1.784 4.315 2.845 6.946 4.814 2.085 1.585 3.092 2.4 5.185 4.2 2.568 2.215 3.953 4.107 4.646 3.677 1-1.2-1.638-4.708-3.97-6.614-2.268-1.878-4.614-3.4-6.422-4.585-2.331-1.555-2.539-1.908-6.023-4.247-3.746-2.507-6.976-5.66-6.976-5.66l-3.639-2.861-5.699-4.808-6.338-5.838-4.784-5.331s-3.723-4.553-4.315-5.431c-.6-.869-2.354-3.685-3.799-6.068-1.293-2.139-3.8-5.461-4.031-5.746-1.354-1.639-4.446-.977-8.039-3.092-4.361-2.577-5.415-4.931-5.415-4.931s-.162-.345-.331-.53c-.162-.193-.492-.431-.492-.431l-2.285-1.592-1.308-.862s-.992-.823-2.238-1.354c-1.254-.554-4.046-2.177-4.046-2.177l-4.992-3.184s-1.954-1.569-2.6-2.092c-.661-.5-1.892-1.215-1.892-1.215s-.785-.393-1.023-.408c-.238-.016-1.276-.108-1.276-.108s-.962-.254-1.939.893c-.977 1.154-.738.538.854 7.03.63 2.553.569 11.561 1.246 14.306.861 3.523 3.338 8.077 3.592 8.615.247.531.423 2.5.423 2.5s-.107 1.593.062 2.601c.754 4.653 7.561 1.591 9.062 7.976 1.477 6.3-.885 12.584-.885 12.584s-1.462 3.124-3.531 3.615c-2.061.478-5.261-4.091-7.576-7.791-2.284-3.639-4.153-8.408-4.753-9.923-.6-1.516-.916-1.847-1.608-2.946-1.023-1.639-1.846-1.338-2.992-3.923-1.154-2.584-.131-3.623-.646-5.876-.3-1.246-.569-1.385-.961-3.17-.377-1.776-.885-7.43-.885-7.43l-.723-5.261s-.254-2.4-.584-3.908c-1.146-5.261-1.546-10.353-1.546-10.353l-.215-2.092-.077-2.161s-.069-1.039.185-2.108c.254-1.068.77-1.953.77-1.953s1.062-1.777 1.246-2.223c.177-.423 2.346-2.946 2.346-2.946s1.138-.946 2.992-2.077c1.862-1.131 3.531-1.054 3.531-1.054s.492-.046 3.785.362c3.292.407 10.061 2.207 11.769 2.646 1.684.455 3.7 1.162 5.007 1.892 3.761 2.046 4.9 1.178 1.908-1.168-2.016-1.577-2.584-2.285-4.208-3.761-1.37-1.262-2.446-2.101-3.469-3.262-1.023-1.185-3.938-5.484-3.938-5.484l-1.823-2.692s-.977-1.107-1.139-1.185a13.378 13.378 0 01-.646-.469s-1.207.061-2.454-.177c-1.261-.254-1.846 1.516-1.846 1.516s-2.708 5.053-5.461 8.146c-4.461 5.022-7.661 8.438-9.299 11.114-2.3 3.708-1.792 7.77-2.977 9.646-.692 1.1-1.069 1.262-1.446 2.223-1.154 2.916 3.038 4.515 2.077 7.745-1.531 5.124-13.53 10.192-15.123 9.346-1.654-.869-.3-7.799.254-10.038.569-2.253 2.253-5.576 2.408-5.745.146-.162.554-.947.676-1.608.131-.661.177-2.161.254-2.992.077-.839.423-2.161.423-2.161s.046-.285 1.107-2.584c1.069-2.315 4.977-7.7 7.777-12.838 1.846-3.354 2.615-5.384 4.461-8.746 1.7-3.084 4.615-7.792 4.615-7.792s1.23-2.4 1.807-3.292c.585-.916 1.815-2.646 2.969-4.354 1.162-1.7 1.446-2.977 2.961-4.377 1.254-1.169 2.108-1.792 3.746-2.315 2.438-.808 4.108-.376 6.6.316 2.584.707 4.361 1.892 6.054 3.292a24.232 24.232 0 012.938 2.977l.823 1.215.507.3 1.57 1.008 3.592 2.376s8.523 5.8 9 6.115c.454.3 1.984 1.554 2.284 1.654.316.092 2.585-2.37 7.039-5.438 5.153-3.577 6.976-3.308 8.685-4.238 1.684-.931 2.376-1.7 3.7-3.023 2-2 2.015-3.069 4.284-5.861 2.285-2.784 4.423-4.346 4.423-4.346s.315-.315 4.385-4.915c4.061-4.584 5.861-8.054 5.861-8.054l2.231-4.469s3.23-6.945 4.269-9.692c1.046-2.753 1.046-3.669 1.046-3.669s.153-.723-.631-2.123c-.808-1.393-1.639-.762-3.185-.446-2.961.631-4.761-.139-7.753-.661-2.738-.455-4.169-1.277-6.915-1.731-2.784-.469-4.407-.93-7.2-.661-.423.046-1.276.223-1.685.361-1.577.523-2.015.646-3.184 1.323-1.354.631-2.246.831-3.746.869-1.039.031-1.669.062-2.63-.315-.662-.254-1.039-.446-1.562-.915a3.658 3.658 0 01-.723-.839c-.03-.292-.123-.277.162-.753.277-.485.623-.57.623-.57l1.277-.315s1.8-.469 1.969-.516c.162-.046 1.877-.6 2.63-.838.762-.238 1.593-.677 1.593-.677s.461-.738.284-1.161c-.223-.478-1.246-.523-1.246-.523s-1.431.523-1.592.569c-.154.031-2.439.753-2.439.753s-1.792.393-3.184.723c-1.4.315-3.4.477-3.4.477l-.6-.162s-.677-.454-.784-.93c-.1-.423-.162-.739-.239-1.223-.3-1.77-.661-2.839-.238-4.584.162-.731.331-1.139.646-1.815.269-.562.446-.885.792-1.416l1.101-1.8 2.077-3.069c.715-.723 1.185-1.084 2.084-1.592 1.323-.738 2.092-.946 3.746-1.131 1.623-.177 1.846-.161 4.146-.677 2.315-.523 3.954-1.438 3.954-1.438s5.531-2.031 8.899-3.685c3.53-1.73 5.069-3.577 8.723-5.007 1.546-.6 2.446-.885 4.038-1.292.2-.131.3-.254.362-.493.154-.577-.738-.846-1.354-.785-.554.046-1.815.631-2.1 0-.216-.484 1.153-.769 1.153-.769s.646-.3.662-.661c.016-.554-.93-.193-1.354-.239-2.146-.239-2.315-.631-3.8-.992-1.746-.438-2.691-.977-4.507-1.054-1.6-.062-3.1.277-4.107.515-.992.254-1.023-.723-.631-.915 2.808-1.308 2.869-1.416 4.854-1.508 1.084-.046 2.6.185 2.769.269.162.092 2.331-.015 2.885-.584.569-.554-1.777-.523-2.885-.962-1.022-.407-2.584-.522-2.553-1.2.054-.677.808-.3 1.346-.438.676-.162 1.069-.146 1.761-.238 1.247-.169 1.354-.285 3.2-.438 1.823-.177 4.454.6 4.454.6s2.761 1.224 4.115 1.87c1.354.63 2.992.961 2.992.961s1.922.269 3.385-.646c1.484-.908.646-1.508.13-2.346-.508-.785-1.153-1.923-.208-4.077.839-1.877 1.277-4.069 1.516-4.269.301-.238 1.462 1.446 2.215 2.139 2.7 2.523 6.27 3.769 9.639 9.045.262.423 1.508-.254 5.415.346s7.323 4.784 8.185 5.785c.893 1.007 2.046.953 2.046.953l1.877.254 6.814.115s3.093-.554 4.877.124c1.246.469 5.4 3.246 3.508 4.299-1.323.739-2.569-.884-3.769-.961-1.416-.092-2.031.177-3.293.492-2.646.662-8.322 2.377-6.261 3.069.153.061.446.107.446.107l1.015.177s2.493.569 4 1.161c2.276.9 3.354 1.893 5.446 3.123 1.199.692 1.723 1.385 3.03 1.777 1.2.347 1.969 0 3.2.208 1.615.285 2.522.616 4 1.323 2.199 1.054 2.999 2.331 4.969 3.746.984.715 1.814.823 2.553 1.785.17.215.309.331.386.584.262.877-1.447.361-2.354.216-1-.169-1.415-.662-2.338-1.085-1.369-.646-2.016-1.354-3.508-1.623-1.077-.208-1.723-.046-2.83.015-1.077.046-1.646.208-2.724.223-1.83.031-2.861-.13-4.661-.508-2.016-.422-3.016-1.207-5.015-1.623-2.262-.469-6.261-2.407-5.877-.469.2.931 2.323 1.715 2.323 1.715s1.461.785 2.846 1.4c1.385.6 2.153 1.516 2.153 1.516l.954.708s.984 1.354 2.277 2.884c1.261 1.508 3.507 1.461 3.507 1.461s1.354 0 4.276.6c2.908.6 5.908 2.399 5.908 2.399s2.261 1.554 3.584 3.116c1.308 1.562.554 2.346.385 2.507-.153.169-.093.092-.277.169-.153.077-1.784-1.969-1.784-1.969l-1.169-.992s-1.139-.8-2.615-1.277c-1.477-.469-1.97-.154-1.97-.154s-3.138.877-5.876.8c-2.708-.077-4.123-1.162-4.123-1.162l-1.723-1.154s-2.585-2.423-2.678-1.276c-.062.777 1.139 1.638 1.139 1.638s.831.838 1.385 1.37c1.046 1.03 1.478 1.546 2.677 2.614 1.2 1.078 1.938 1.078 1.938 1.078s.646.153.892.2c.247.046.678.162.678.162s.4.154 2.276.916c1.861.753 3.877 2.392 3.877 2.392s.185.154.462.208c.276.031.83.308.984.354.169.038.646.038 1.723.192 1.093.162.677.854.677.854l-.185.261-.893.6s-1.153.331-1.938.369c-.8.046-1.938-.399-1.938-.399l-2.416-.908s-2.445-.646-2.969-.731c-.523-.077-2.707-.515-3.076-.592-.354-.084-1.446-.477-1.738-.646-.293-.161-.831-.269-2.154-.915-1.308-.646-1.831-1.392-3.461-1.908-1.646-.523-2.646-.63-3.877.224-2.123 1.461 3.199 1.7 5.846 3.022 3.908 1.923 6.107 3.338 7.03 5.416.938 2.084 1.877 2.838 1.877 2.838s2.754 1.385 3.984 2.838c.677.784.77 1.431 1.446 2.215 1.507 1.769 4.431 1.669 5.016 3.169.554 1.399-2.37.769-3.893.63-2.738-.269-3.4-2.777-5.954-3.784-1.445-.577-2.368-.577-3.846-1.084-2.692-.885-3.953-2.046-6.646-2.884-1.631-.5-4.585-2.646-4.215-.993.061.4.307.708.414.947.139.238.816 1.115.816 1.115s.907 1.2 1.322 1.516c.385.331 2.123 1.638 4.615 2.992 2.462 1.354 4.615 3.954 4.615 3.954s.739 1.062 1.093 1.801c.369.831.107 1.084.692 2.238.538 1.146.8 1.369 1.538 2.077 1.815 1.746 3.723 1.399 6.03 2.346.631.269.677.361 1.354 1.084.677.715-.124 1.022-.124 1.022s-2.568.662-4.23.523c-2.153-.169-3.123-.831-5.215-1.877-2.123-1.038-3.23-2.907-3.445-3.022-.185-.124-.708-.677-1.108-.962-.399-.284-1.431-.5-2.354-.754-.938-.253-1.462-.3-2.399-.554-1.277-.362-2.601-.923-3.201-1.115-.6-.208-1.969-.454-2.969.138-2 1.185 3.107 1.984 4.692 3.685.815.854 1.153 1.454 1.923 2.354.585.692.831 1.177 1.555 1.715.491.361 1.399.753 1.399.753s1.23.57 3.03 1.562c1.8.992 3.907 3.799 3.907 3.799l1.277 1.954.754 1.115.2.516.276.63s.924 1.2 1.6 1.592c.678.408.554.762.554.762s-.076.247-.554.516c-.461.285-.723.046-1.399-.154-.677-.192-1.123-.838-1.707-1.308-.616-.492-1.262-1.684-2.354-2.361-.969-.584-2.23-.792-2.723-.946-.477-.176-1.677-.93-2.154-1.138-.461-.185-1.707-.754-1.707-.754s-2.399-1.338-3.724-1.699c-1.322-.37-.477.438-.477.438s1.186 1.846 2.323 2.584c1.478.977 3.554 1.839 2.877 2.63-.462.516-1.077.331-1.754.254-1.107-.13-2.446-1.454-2.446-1.454s-.553-.361-3.03-1.146c-2.462-.808-1.554.546-.985 1.277a4.735 4.735 0 001.309 1.115l1.677.754.769.238s.678.123 2.908.646c2.23.508 3.462 1.593 3.462 1.593s1.199 1.115 2.86 2.346c1.692 1.246 3.354 1.562 4.277 1.685.923.115.892.761.892.761s.123.593.063.785a.453.453 0 01-.432.362c-.185 0-.276.077-.522.208-.246.123-1.2.277-1.2.277s-2.492-.077-4.461-.562c-1.938-.477-3.662-1.831-3.847-1.907-.153-.077-1.969-1.084-3.23-1.484-1.215-.408-3.169-.231-3.385-.154-.199.077-.877.185-2.03.523-1.169.308.292.753.292.753l.831.077 1.984.154s2.062.238 3.8.884c1.738.631 2.877 1.908 4.031 3.077a13.966 13.966 0 002.431 1.9l.923.6.477.361.123.315s-.046.162-.123.361c-.077.208-.369.361-.369.361s-.431-.077-.615-.077c-.216 0-1.523-.692-2.492-1.115-1-.438-1.508-.854-2.585-1.116-.923-.223-2.153-.323-2.431-.238-.276.077-2.308.362-3.877.469-1.568.123-2.923.146-4.769-.077-2.63-.315-6.122-2.393-6.569-1.815-.907 1.215 1.862 1.561 3.216 2.338 1.846 1.069 5.046 2.031 5.046 2.031s2.338.515 3.707 1.161c3 1.393 3.908 3.454 6.323 5.623 1.323 1.215 2.4 1.738 4.184 2 1.539.224 1.508.039 3.938-.438 2.446-.484 3.924-2.8 4.631-1.953.139.162.077.315.046.554-.046.238-.245.677-.245.677s-.277.392-.708.838c-.446.438-2.123 1.354-3 1.715-.877.362-3.03.962-5.738.877-2.708-.077-6.522-2.154-6.522-2.154l-2.738-1.154s-1.262-.592-2.123-.915c-2.277-.862-3.723-.785-6.062-1.4-1.446-.392-2.399-.8-3.707-1.069-1.323-.284-.569.239-.446.423.615.838 1.445 1.107 2.492 1.592 1.385.677 2.354.539 3.769 1.139 1.585.639 2.97 1.539 3.847 2.108.861.554 1.508 1.185 2.354 2.062l2.907 2.492s.677.554.754.785c.076.239.399.838.246 1.8-.17.962-.954.285-.954.285l-.769-.492-.77-.708-1.216-1.007s-1.045-.947-2.846-1.862c-1.784-.931-3.938-1.162-3.938-1.162s-1.908-.284-1.846.316c.092.592.521.646 2.029 1.038 1.523.393 2.523 1.162 2.523 1.162s1.555 1.154 2.677 2.43c1.107 1.278 1.431 2.516 1.431 2.516s.569 1.046 2 2.43c1.431 1.4 2.185.915 2.107 1.593-.077.677-.708.8-.708.8s-.369-.032-.522-.032c-.154 0-.523-.207-.923-.361s-1.908-1.2-1.908-1.2-2.368-1.922-2.63-2.107a408.68 408.68 0 01-2.523-1.877s-1.323-.846-2.262-1.323a28.107 28.107 0 00-2.969-1.2c-.707-.231-2.031-.308-2.031-.308s-1.584-.238-2.553-.6c-1.523-.585-3.293-2.208-3.492-2.285-.216-.084-1.631-.569-1.908-.523-.276.031-.923 2.708-1.076 4.254-.646 6.477 1.076 10.776 3.753 16.715 3.861 8.63 14.614 19.36 14.614 19.36s2.708 1.531 3.847 2.446c3.215 2.516 8.538 6.077 13.261 10.784 4.03 4.038 9.385 11.199 9.385 11.199s3.106 4.323 4.553 7.384c1.754 3.754 3.17 9.478 3.17 9.478s.123.984.215 1.2c.123.199.399.461.585.461l1.876.062c.185 0 2.323-.153 3.739-.508 1.4-.354 4.723-1.877 6.938-3.03 2.184-1.17 4.815-3.385 4.815-3.385s.507-.431 3.062-3.292c2.585-2.861 4.246-7.153 4.876-8.776.616-1.607 1.124-4.707 1.493-10 .399-5.314-.323-10.915-.323-10.915s-.969-7.815-1.555-10.477c-.584-2.645-1.999-6.984-1.999-6.984s-.984-3.86-1.292-6.298c-.324-2.439-.369-6.408-.369-6.408s0-2.43.783-6.922c.816-4.469 3.555-8.977 3.555-8.977s.769-1.516 3.724-5.054c3.03-3.623 3.998-4.192 6.983-6.354 2.37-1.7 5.43-4.438 6.432-3.792 1.107.692-1.079 2.077-1.817 2.8-1.861 1.846-5.337 5.107-8.153 10.022-2.461 4.254-3.384 7.069-3.998 9.846-.617 2.77-.354 5.815-.277 6.854.093 1.039.661.662.661.662s5.984-4.808 9.23-8.446c3.523-3.938 6.661-10.946 7.891-11.007.831-.054 1.216 1.823 1.016 2.692-.768 3.638-1.029 4.092-2.216 6.507-1.353 2.769-2.613 4-4.491 6.554-1.97 2.677-2.938 3.7-4.522 7.245-2.291 5.1-.954 9.039-.954 9.039s.277 2.392 1.353 2.361c1.802-.062 5.754-5.054 8.339-9.139 1.909-2.992 2.6-6.453 3.847-8.269 1.138-1.607 2.139 2.616 1.646 5.108-.57 2.961-2.031 5.623-5.246 9.815-3.138 4.091-3.046 7.984-3.046 7.984s-.323 1.777-.585 5.654c-.245 3.86.862 9.723.862 9.723s.983 4.899 1.185 8.614c.185 3.738.061 12.223-3.432 18.83-1.384 2.646-4.354 6.308-4.354 6.308s-2.292 2.354-4.169 3.722c-1.878 1.37-6.385 3.509-6.385 3.509s-3.122 1.076-3.553 1.169c-.462.123-.738.507-.738.507s.276.601.399.847c.107.247.984 2.399.984 2.399s.938 3.046 1.292 5.462c.354 2.415-.062 2.969-.399 4.815-.339 1.77-1.107.953-1.308 4.43-.169 3.078 1.216 4.615.969 8.062-.106 1.508-1.815-1.907-2.646-3.353-1.754-3.14-1.339-7.97-1.369-9.169-.047-1.2-.14-2.524-.585-4.031-.538-1.97-1.354-3.492-2.261-4.692-.924-1.185-1.893-1.861-2.216-1.738-.323.108-.354.738-.354 1.046-.016.339.63 1.477.769 1.724.169.23 1.323 2.338 1.323 2.338s.507 1.631.707 4.801c.201 3.138-.769 7.045-.769 7.045s-1.262 4.385-2.584 6.97c-1.479 2.845-4.754 6.722-4.754 6.722s-2.354 2.154-4.124 5.692c-1.737 3.538-.245 5.077-.892 5.538-.677.446-2.062-2.046-2.431-3.723-.354-1.569-.185-2.308.462-4.062.6-1.692 2.016-4.139 2.016-4.139l2.107-3.584s2.554-4.861 3.354-8.4c.8-3.507-.123-7.414-.123-7.414s-.107-1.292-.984-1.231c-.893.046-1.507.816-1.877 1.754-.724 1.938.308 1.585-.801 4.815-.86 2.538-1.107 2.2-1.569 3.707-.554 1.8-.846 3.646-.814 4.77.046 1.107-.569.646-.569.646s-1.077-2.001-1.077-4.492c0-1.354.062-2.123.216-3.478.246-2.169 1.138-5.491 1.138-5.491s.954-3.277.754-6.262c-.229-3.015-1.276-3.568-1.276-3.568s-.276-.4-1.446-.339c-1.153.093-1.092 2.169-1.092 2.169s-.354 2.97-.815 4.815c-1.277 5.092-2.984 7.769-6 12.061-2.738 3.877-6.445 7.293-8.308 8.893-1.846 1.631-7.538 5.769-7.538 5.769l-6.676 4.445s-2.646 2.585-3.847 5.662c-1.23 3.062-1.169 5.461-.462 8.276.709 2.831 1.724 4.123 2.262 4.922.523.771 1.555 2.154 1.893 3.786.215.999.062 1.599.123 2.614.063.893.185 1.385.154 2.293-.031 1.415.23 2.414-.585 3.568-.585.877-2.185 1.646-2.185 1.646s-1.814.799-2.893 1.461c-11.354 6.846-15.383 11.292-21.783 18.922-2.031 2.446-.538 2.293-2.707 5.185-1.316 1.724-4.354 1.724-5.454 3.784-1.53 2.815 3.446 5.585-2.3 8.062-7.407 3.2-20.153.907-20.407-.092-.692-2.739 2.492-5.907 3.623-7.169 5.184-5.662 9.815-5.801 11.515-10.492.369-1 .223-1.861 4.353-4.923 2.9-2.139 14.484-10.861 19.546-16.676 1.738-2 3.23-3.322 3.984-5.477.77-2.186-.754-3.554-.754-3.554l-2.077-3.385-3.984-7.123s-1.676-3.784-2.584-5.969c-.938-2.185-2.677-8.062-2.677-8.062s-1.276-5.291-1.493-8.738c-.384-6.184.462-9.783 2.094-15.783 2.107-7.784 6.891-11.046 8.799-18.769.555-2.245.677-6.092-.462-5.907-1.077.2-1.169 3.23-1.999 5.262-3.077 7.661-7.139 11.015-9.369 18.952-1.492 5.369-2.107 8.555-2.093 14.123.017 3.184-.107 2.6.708 8.123.323 2.03.815 3.122 1.416 5.106.43 1.416 1.584 4.062 1.584 4.062s1.585 3.492 2.139 5.938c.168.847.385 1.322.322 2.169-.107 1.461.154 1.77-.553 3.092-.877 1.647-.34 2.616-3.139 3.23-2.492.523-7.584-1.138-7.584-1.138s-20.93-6.338-34.291-4.508c-2.646.354-4.069 1.323-6.73 1.277-2.423-.031-3.654-1.924-6.077-1.2-.492.139-.646.492-1.092.785-3.538 2.461-.831 6.553-10.153 4.43-5.723-1.308-12.653-4.814-11.454-7.015 1.607-2.923 3.761-3.4 8.285-5.262 4.838-1.969 12.099-1.415 13.53-1.507 1.746-.139 4.254-1.354 7.376-1.431 5.4-.093 6.361.554 6.361.554l9.168.814 17.546.217s3.138-.231 4.384-.478c1.262-.247 2.254-2.723 2.945-3.908.678-1.168-.03-2.892-.03-2.892l-.522-.815-1.67-2.692-3.084-5.2-3.423-6.83s-2.238-4.753-3.43-7.876c-1.185-3.108-1.877-4.862-2.662-8.076-.823-3.309-1.331-5.985-1.438-8.646-.13-3.82-.384-6.789.685-9.912"/><path d="M270.971 303.355c3.691-4.738 4.047-9.139 4.261-15.338.169-4.507-1.537-11.453-1.537-11.453l-.232-.508s-.646-.839-1.044.269c.061.978.185 1.762.185 1.762l.214 8.946s-.277 4.507-1.814 9.153c-2.585 7.846-9.446 11.338-10.445 14.169-1.711 4.691 5.997-1.293 10.412-7m-38.705 14.477s-1.508.431-1.539 1.922c-.03 1.493.369 2.785.323 4.585-.03 2.293-2.138 4.938-.784 5.8 2.323 1.477 4.322-8.923 3.615-10.461-.708-1.54-1.4-1.863-1.615-1.846m-26.06 72.103s-.432-.23-1.277.093c-.83.322-.77 1.185-.77 1.185s-.169.923.508 1.016c.678.123 1.785-1.539 1.785-1.724 0-.185-.246-.57-.246-.57m-24.522 17.43s-.247.247-.031.415c.23.201.554-.046.554-.046s4.23-3.307 6.738-5.63c2.646-2.492 6.462-6.784 6.462-6.784s.261-.323-.031-.6c-.309-.277-1.031.153-1.631.43-.523.277-.831.569-1.23.893-.369.339-1.631 1.631-1.631 1.631l-3.262 3.169-2.062 1.938-1.999 1.907-.831.955s-.216.369-.276.461c-.063.107-.277.384-.277.384s-.309.293-.309.385c0 .077-.092.154-.092.247a1.438 1.438 0 01-.092.245m-7.315 4.801s-.454-.369-1.169-.016c-.723.385-1.492 1.368-1.555 1.477-.068.139-.461.662-.191 1.123.269.462 1.184-.216 1.322-.246.131 0 1.324-.953 1.324-.953s.692-.432.269-1.385m-14.007 14.183s-.6-1.107-1.385-.646c-.785.462-1.215.616-1.938 1.615-.123.169-.9 1.17-1.039 1.431-.138.247-.915 1.724.662 1.831 2.708.153.93-1.584 1.861-2.262.754-.522 2.169-.384 2.185-.938.015-.553-.346-1.031-.346-1.031m-47.998-56.675s-1.623.401-1.746.955c-.131.584.946 1.138 1.115 1.168.192.031.554.462 1.638-.277 1.069-.722 1.023-1.338 1.023-1.338s.631-.738-2.03-.508m26.399-.861s-.016-.6-1.162-.522c-1.169.062-1.415.276-1.446.461-.038.169.062.462 1.1.554 1.054.062 1.477-.001 1.508-.493m24.96.723c-2.1-.016-1.438.047-2.73.108-2.346.123-3.623.03-5.938-.124-3.247-.215-8.269-1.015-8.269-1.015s-.631-.153-.885.262c-.231.384.615 1.276 1.369 1.508 4.115 1.277 4.338 1.062 7.138 1.107 1.562.016 2.431-.139 3.985-.231 1.969-.152 2.884.154 5.03-.415.561-.139 1.1-1.184.3-1.2m14.061-4.169s-.423-.491-1.293-.061c-.86.415-1.384 1.353-1.384 1.353s-.407.646.462.555c.846-.123 1.607-.492 1.807-.615.223-.125.854-.709.408-1.232m-12.238-168.769s5.938-5.561 10.191-12.914c2.522-4.385 3.622-14.592 1.454-12.054-.978 1.162-2.162 6.454-4.039 10.376-2.677 5.584-8.392 13.492-8.392 13.492s-1.229 2.631.786 1.1m-23.737 14.131s-.631.492-.346 1.277c.3.8 1.508.2 1.508.2s2.746-1.038 5.623-1.146c2.884-.123 6.884.738 6.884.738s1.907.523 2.223.646c.315.131 1.354.631 1.531.692.154.069 1.146.554 1.7.054.554-.508-3.469-4.161-7.576-4.715-6.839-.931-11.33 2.015-11.33 2.015l-.217.239m-28.168 24.083c.484.416 2.769-3.938 4.676-6.692 1.4-2.015 3.955-5.384 3.955-5.384s1.153-1.546-.8-.684c-.792.354-2.961 2.007-4.492 5.046-1.293 2.584-3.847 7.306-3.339 7.714m-15.799-18.915s-.493 1.685 1.477 3.792c1.984 2.116 2.492 3.861 3.754 2.6.346-.346-1.231-3.192-2.031-3.984-.823-.785-1.408-1.431-1.408-1.431l-.515-.423-.662-.369-.377-.153s-.1-.093-.238-.032m-6.401-16.153s-2.138.4-2.661 1.438c-.531 1.039 2.461.408 2.461.408s1.984.107 2.031-.646c.046-.769-.253-.846-1.831-1.2m-33.975 56.305c-1.092-.315-1.276 1.832-1.423 2.523-.123.692.493 2.077.746 2.077.246-.016 1.115-1.369 1.161-2.03.047-.677.478-2.269-.484-2.57m35.284 41.937s-1.954-1.547-2.254-.931c-.292.615 1.608 3.33 1.608 3.33s.584.893 1.484.492c.884-.43.569-1.415.569-1.415s-.6-1.261-1.407-1.476m-14.73-45.352s-.5-.13-.677.469c-.185.6-.169 1.577-.3 2.761-.107.924.239 3.385.239 3.385s.192 1.954.584 3.116c.423 1.276 1.546 3.092 1.546 3.092s.423.931.946.885c.515-.054.392-.662.392-.662s-1.638-6.491-1.684-7.153c-.193-2.161-.193-4.792-.193-4.792l-.015-.393s-.016-.693-.838-.708m2.553-19.806s-.9-.169-1.73 1.561c-.838 1.754-.661 2.462-.585 2.539.062.077.723.062 1.785-1.561 1.054-1.608.815-2.224.815-2.224s-.062-.315-.285-.315m24.753 17.945s1.084 1.622-.992 1.246c-2.084-.377-6.461-3.831-8.246-4.761-1.762-.931-4.662-1.224-3.446-2.315.223-.185.284-.363.63-.377.362-.016 1.562.453 1.638.507.062.03 3.146 1.307 3.261 1.338.108.046 1.839.785 3.069 1.507 1.231.73 3.23 2.13 3.23 2.13l.856.725m57.697 49.675c.569 1.784-6.569-3.77-10.392-6.716-10.13-7.8-22.53-23.791-20.984-25.206 1.277-1.162 6.361 6.161 13.815 14.229 7.969 8.6 17.23 16.631 17.561 17.693m29.798-7.647c-2.215 2.361-2.999 5.385-1.723 7.646 1.246 2.199 1.631-3.216 3.016-4.808 1.2-1.393 1.938-1.169 3.907-2.569 3.354-2.361-2.399-3.276-5.2-.269m-12.676-50.474c-1.523-.246-1.477 2.069-1.262 3.708 1.016 7.337 4.309 12.991 8.707 18.314 2.678 3.246 10.016 9.03 10.861 8.1.309-.331-6.984-5.969-11.63-13.214-3.292-5.138-5.046-9.484-5.461-13.723-.045-.539.077-2.977-1.215-3.185M151.731 133.57c-3.308 1.792-9.046 3.37-9.046 3.37s-.262.569.477.508c4.916-.393 6.792-1.008 9.408-2.162 2.615-1.13 4.515-4.269 4.515-4.269s1.062-1.954-.907-.346c-.616.492-2.632 1.907-4.447 2.899m39.906-12.606s-1.123-.247-1.877.223c-.754.477-.539.854-.539.854s1.17.892 2 1.039c.831.123 2.615.9 2.555.3-.078-.615-1.077-1.715-1.432-2.015-.322-.317-.707-.401-.707-.401m-18.783 34.46c.191.392 3.545-.523 4.838-1.247 1.008-.569 1.407-2.477 1.407-2.477s.277-1.846-.153-1.131c-1.916 3.132-6.278 4.454-6.092 4.855m-.108-8.608c1.354-2.6-3.716 2.7-6.3 4.069-1.577.831-4.146 1.938-4.146 1.938s-.677.846.269.769c.946-.062 3.354.754 5.308-.754.462-.369 2.492-3.323 2.492-3.323s1.73-1.469 2.377-2.699m-.785 11.061c.107.423 5.791.284 7.215-.146 1.123-.308 1.738-2.292 1.738-2.292s.677-1.738.092-1.154c-2.576 2.631-9.144 3.169-9.045 3.592m-91.296 52.067s-.861-.315-1.93 1.292c-1.062 1.6-5.846 8.869-5 9.938 1.007 1.261 5.153-6.492 6.416-7.938 1.276-1.469.753-2.946.753-2.946s-.015-.331-.239-.346M184.883 341c-.523 2.415.092 7.354.924 8.322 2.03 2.446.784-3.83 1.076-6.031.246-2.045.492-2.753 1.508-4.938 1.815-3.938-2.445-2.492-3.508 2.647m-17.461-210.044s-1.576.046-2.807.723c-1.246.677-1.554 1.639-1.554 1.639s-.254.692-.084 1.069c.361.823 2.069-.423 3.261-.016.961.346 1.423.631 2.161 1.515.646.77 1.777 1.877 2.485 1.246.73-.615.462-2.192.462-2.192s-.839-2.569-1.938-3.292c-1.109-.738-1.986-.692-1.986-.692m-26.198 18.068s-.885.138-.677 1.215c.208 1.054.785.892.785.892s1.831-.785 1.723-1.884c-.131-1.108-1.831-.223-1.831-.223m-12.792-5.738s-.961.039-1.638 1.23a14.986 14.986 0 00-1.054 2.416s-.315 1.554.238 2.046c.562.484 1.177-1.007 1.984-1.592.484-.346.785-.5 1.285-.854.685-.47 1.8.13 1.723-1.254-.099-1.393-1.576-2.054-2.538-1.992m41.336-14.884s-2.176-.315-2.092.523c.077.784 1.178.315 1.885.631.692.315 1.154.438 1.707.946.408.361.361 1.069.862 1.084.692.016.554-.269.554-.269s-.631-1.877-1.453-2.407c-.816-.539-1.463-.508-1.463-.508m24.284 8.776c-.308 1.185-.493 1.592-.493 1.592s-.614 2.408 1.816 1.523c2.431-.893 1.169-.516 2.922-1.369 1.724-.846 1.693-.377 2.955-.315.43.015.707.03 1.354-.092.553-.124.322-.77-.908-1.101-1.322-.346-2.938-.269-4.814-.285-1.108-.014-2.509-1.137-2.832.047m1.077-8.899s-1.108-.254-1.877.223c-.754.469-.523.846-.523.846s1.154.916 2 1.039c.831.146 2.615.915 2.554.3-.093-.6-1.077-1.715-1.431-2.015-.353-.301-.723-.393-.723-.393m4.278 16.715s-1.186-.239-2.001.215c-.8.446-.585.808-.585.808s1.262.847 2.154.977c.893.123 2.8.846 2.723.269-.076-.569-1.154-1.623-1.508-1.907-.354-.286-.783-.362-.783-.362m.369 6.06s-1.263-.284-2.124.239c-.861.515-.601.931-.601.931s1.309.992 2.263 1.131c.938.146 2.969.977 2.876.315-.076-.661-1.215-1.861-1.615-2.184-.369-.34-.799-.432-.799-.432m.568 5.908s-1.369-.315-2.293.269c-.938.584-.646 1.054-.646 1.054s1.415 1.107 2.431 1.277c1.031.162 3.23 1.107 3.139.361-.093-.738-1.324-2.108-1.754-2.469-.4-.385-.877-.492-.877-.492m-.123 7.307s-1.369-.292-2.293.285c-.938.569-.676 1.038-.676 1.038s1.445 1.107 2.461 1.277c1.016.162 3.215 1.108 3.123.369-.107-.746-1.323-2.115-1.738-2.477-.431-.376-.877-.492-.877-.492m-1 14.246s-1.385-.3-2.308.285c-.923.577-.646 1.039-.646 1.039s1.415 1.115 2.431 1.277c1.031.154 3.231 1.115 3.139.361-.093-.738-1.322-2.1-1.754-2.477a2.2 2.2 0 00-.862-.485m.924-7.123s-1.57-.361-2.678.315c-1.062.661-.738 1.2-.738 1.2s1.646 1.292 2.83 1.477c1.17.192 3.724 1.277 3.631.431-.123-.869-1.539-2.446-2.03-2.869a2.635 2.635 0 00-1.015-.554m-1.601 13.569s-1.139-.27-1.907.215c-.77.477-.523.854-.523.854s1.169.931 2 1.054c.846.139 2.646.915 2.584.3-.092-.616-1.092-1.731-1.445-2.031-.339-.315-.709-.392-.709-.392m-1.077 6.168s-.923-.2-1.569.193c-.614.392-.431.707-.431.707s.969.754 1.662.869c.691.108 2.215.77 2.153.247-.062-.5-.923-1.431-1.2-1.685a1.616 1.616 0 00-.615-.331m-1.322 5.631s-.831-.192-1.416.169c-.554.346-.4.646-.4.646s.877.677 1.508.77c.631.115 1.984.692 1.924.238-.047-.454-.801-1.308-1.063-1.531-.262-.23-.553-.292-.553-.292m-1.324 4.615s-.861-.193-1.414.153c-.586.362-.416.646-.416.646s.877.692 1.508.785c.631.1 1.984.692 1.923.224-.046-.454-.8-1.292-1.077-1.516-.247-.23-.524-.292-.524-.292m-1.614 5.354s-.677-.162-1.154.123c-.462.3-.308.523-.308.523s.707.555 1.215.647c.508.076 1.615.554 1.555.168-.047-.361-.662-1.038-.862-1.23-.216-.185-.446-.231-.446-.231m-1.923 5.007s-.585-.139-.985.107c-.399.254-.276.461-.276.461s.615.469 1.046.531c.431.085 1.384.493 1.338.162-.03-.315-.569-.9-.738-1.054a1.13 1.13 0 00-.385-.207m-1.985 4.762s-.601-.131-1 .123c-.386.238-.247.438-.247.438s.585.477 1.031.554c.446.062 1.384.469 1.338.162-.03-.339-.569-.916-.738-1.077-.184-.155-.384-.2-.384-.2M60.52 240.72s-.992 1.922-.5 2.977c.485 1.062 1.823-1.685 1.823-1.685s1.384-2.739.823-3.238c-.569-.508-.899.907-2.146 1.946" fill="#FFF"/><path d="M200.543 487.684v-3.737c0-8.493 4.293-10.154 16.831-10.215 11.538.061 15.614 1.507 15.614 8.83v28.26h4.261v6.369h-28.183c-5.938 0-9.814-4.077-9.814-9.092v-5.724c0-4.938 2.522-9.245 11.353-9.292h11.015v-8.6c0-4.492-.308-5.03-4.814-5.03h-.047c-5.399 0-5.753.708-5.753 5.03v3.2h-10.463m13.078 10.14c-2.215 0-3.523 1.784-3.523 3.999v5.461c0 2.201.939 3.954 3.523 3.985h3.969c2.185 0 3.97-.677 3.97-3.985l.03-9.46h-7.969zm-39.883-13.446V474.5h-15.722v5.877h4.192v30.429h-4.192v6.385h19.692v-6.385h-3.97V494.5c0-1.522 9.269-13.229 9.269-11.877v16.199H193.9v-18.229c0-4.169-2.724-6.86-7.693-6.86-5.908-.001-9.9 7.429-12.469 10.644m125.325 26.399V474.5h-16.046v5.877h4.493v30.399h-4.493v6.415h20.261v-6.415h-4.215m-165.777-26.399V474.5h-15.722v5.877h4.192v30.429h-4.192v6.385h19.676v-6.385h-3.954V494.5c0-1.522 9.261-13.229 9.261-11.877v16.199h10.884v-18.229c0-4.169-2.708-6.86-7.684-6.86-5.893-.001-9.892 7.429-12.461 10.644"/><path d="M111.548 503.207h-11.03v3.2c0 4.339-.723 4.523-6.1 4.584h-.077c-6.162.031-5.815-.584-5.746-4.584v-7.585h22.952v-16.476c0-5.97-4.507-8.477-16.399-8.522h-1.707c-12.838.061-16.253 2.984-16.253 10.369v24.121c0 8.122 4.799 9.492 16.491 9.815h1.276c12.762-.293 16.592-1.17 16.592-8.754v-6.168m-22.828-20.246c0-2.245.677-3.354 3.246-3.385h4.838c2 0 3.115.893 3.115 2.492v12.354h-11.2v-11.461z" clip-rule="evenodd" fill-rule="evenodd"/><path stroke-miterlimit="10" stroke-width=".74" stroke="#000" fill="none" d="M293.249 465.732v-7.723"/><path d="M257.25 484.377V474.5h-15.738v5.877h4.185v30.429h-4.185v6.385h19.691v-6.385h-3.953V494.5c0-1.522 9.246-13.229 9.246-11.877v16.199h10.907v-18.229c0-4.169-2.74-6.86-7.725-6.86-5.875-.001-9.876 7.429-12.428 10.644"/><path d="M63.435 496.438v-5.692h-6.13v20.076h10.622v6.369H36.783v-6.369h8.284v-45.09H38.56v-7.754h242.579v7.754H57.305v18.106h6.13v-5.353h7.054v17.953h-7.054"/><path clip-rule="evenodd" fill-rule="evenodd" d="M287.339 457.701h11.568v7.631h-11.568z"/></svg>