<svg xmlns="http://www.w3.org/2000/svg" height="800" width="1200" version="1.0" viewBox="-120 -79.11575 1040 474.6945"><g fill="#424d07"><path d="M137.677 0h65.117v168.978c0 29.104-12.604 89.971-102.821 89.971C9.778 258.948 0 202.215 0 170.271v-31.134h62.948v30.521c0 18.674 12.416 36.012 36.345 36.012 23.777 0 38.383-13.182 38.383-35.398V0zm165.797 70.623c51.002 0 95.911 19.427 95.911 108.631H278.31c0 28.468 11.917 40.22 32.896 40.22 20.887 0 27.927-16.543 27.927-16.543h59.508c0 25.591-35.658 60.137-89.58 59.595-61.518 0-91.684-45.119-91.684-91.424 0-46.391 26.727-100.479 86.097-100.479m36.433 72.705c0-17.302-9.786-33.953-32.19-33.953-21.753 0-29.406 15.336-29.406 33.953zM497.95 70.623c51.066 0 95.89 19.427 95.89 108.631H472.805c0 28.468 11.875 40.22 32.862 40.22 21.046 0 27.962-16.543 27.962-16.543h59.437c0 25.591-35.58 60.137-89.473 59.595-61.618 0-91.777-45.119-91.777-91.424 0-46.391 26.61-100.479 86.134-100.479m36.438 72.705c0-17.302-9.843-33.953-32.204-33.953-21.738 0-29.379 15.336-29.379 33.953zm74.758 173.133V77.562h60.159v27.146c2.095-4.518 3.656-7.668 8.31-13.334 4.033-4.836 15.352-18.684 45.488-18.684 30.051 0 76.897 20.764 76.897 94.228 0 56.763-27.912 98.305-76.196 98.305-26.632 0-38.513-9.18-45.495-14.491-4.466-3.498-5.854-5.139-8.304-8.405v74.136h-60.859zm59.393-147.483c-.68 35.325 7.018 53.914 36.396 53.914 29.32 0 33.628-31.748 33.628-55.975 0-24.269-5.681-47.757-36.446-47.757-18.814 0-32.812 14.469-33.578 49.818"/><path d="M137.677 0h65.117v168.978c0 29.104-12.604 89.971-102.821 89.971C9.778 258.948 0 202.215 0 170.271v-31.134h62.948v30.521c0 18.674 12.416 36.012 36.345 36.012 23.777 0 38.383-13.182 38.383-35.398V0zm165.797 70.623c51.002 0 95.911 19.427 95.911 108.631H278.31c0 28.468 11.917 40.22 32.896 40.22 20.887 0 27.927-16.543 27.927-16.543h59.508c0 25.591-35.658 60.137-89.58 59.595-61.518 0-91.684-45.119-91.684-91.424 0-46.391 26.727-100.479 86.097-100.479m36.433 72.705c0-17.302-9.786-33.953-32.19-33.953-21.753 0-29.406 15.336-29.406 33.953zM497.95 70.623c51.066 0 95.89 19.427 95.89 108.631H472.805c0 28.468 11.875 40.22 32.862 40.22 21.046 0 27.962-16.543 27.962-16.543h59.437c0 25.591-35.58 60.137-89.473 59.595-61.618 0-91.777-45.119-91.777-91.424 0-46.391 26.61-100.479 86.134-100.479m36.438 72.705c0-17.302-9.843-33.953-32.204-33.953-21.738 0-29.379 15.336-29.379 33.953zm74.758 173.133V77.562h60.159v27.146c2.095-4.518 3.656-7.668 8.31-13.334 4.033-4.836 15.352-18.684 45.488-18.684 30.051 0 76.897 20.764 76.897 94.228 0 56.763-27.912 98.305-76.196 98.305-26.632 0-38.513-9.18-45.495-14.491-4.466-3.498-5.854-5.139-8.304-8.405v74.136h-60.859zm59.393-147.483c-.68 35.325 7.018 53.914 36.396 53.914 29.32 0 33.628-31.748 33.628-55.975 0-24.269-5.681-47.757-36.446-47.757-18.814 0-32.812 14.469-33.578 49.818"/></g></svg>