<svg xmlns="http://www.w3.org/2000/svg" height="800" width="1200" viewBox="-5.838 -16.97125 50.596 101.8275"><defs><linearGradient x1="0" y1="0" x2="1" y2="0" gradientUnits="userSpaceOnUse" gradientTransform="scale(61.32233 -61.32233) rotate(36.996 4.4186 7.1368)" spreadMethod="pad" id="j"><stop offset="0" stop-color="#c1c0c1"/><stop offset=".1173" stop-color="#e7e6e6"/><stop offset=".1195" stop-color="#e7e6e6"/><stop offset=".2521" stop-color="#f8f8f8"/><stop offset=".324" stop-color="#f8f8f8"/><stop offset=".4699" stop-color="#deddde"/><stop offset=".7509" stop-color="#b4b3b3"/><stop offset=".8704" stop-color="#c8c7c7"/><stop offset="1" stop-color="#c8c7c7"/></linearGradient><linearGradient x1="0" y1="0" x2="1" y2="0" gradientUnits="userSpaceOnUse" gradientTransform="scale(52.28707 -52.28707) rotate(33.467 5.351 9.4339)" spreadMethod="pad" id="h"><stop offset="0" stop-color="#3d3a3b"/><stop offset=".1173" stop-color="#393536"/><stop offset=".1195" stop-color="#393536"/><stop offset=".2521" stop-color="#4f4c4d"/><stop offset=".4699" stop-color="#393536"/><stop offset=".7509" stop-color="#2c2829"/><stop offset="1" stop-color="#2c2829"/></linearGradient><linearGradient x1="0" y1="0" x2="1" y2="0" gradientUnits="userSpaceOnUse" gradientTransform="matrix(32.52225 0 0 -32.52225 323.8395 84.7015)" spreadMethod="pad" id="f"><stop offset="0" stop-color="#f4f4f4"/><stop offset=".28" stop-color="#f4f4f4"/><stop offset=".865" stop-color="#bbbaba"/><stop offset="1" stop-color="#bbbaba"/></linearGradient><linearGradient x1="0" y1="0" x2="1" y2="0" gradientUnits="userSpaceOnUse" gradientTransform="matrix(0 -52.76545 -52.76545 0 355.2898 83.4787)" spreadMethod="pad" id="d"><stop offset="0" stop-color="#d3d2d2"/><stop offset=".0123" stop-color="#d3d2d2"/><stop offset=".0421" stop-color="#d3d2d2"/><stop offset=".1043" stop-color="#a5a3a4"/><stop offset=".2454" stop-color="#b0aeaf"/><stop offset=".4049" stop-color="#b0aeaf"/><stop offset=".9141" stop-color="#4b4748"/><stop offset="1" stop-color="#4b4748"/></linearGradient><linearGradient x1="0" y1="0" x2="1" y2="0" gradientUnits="userSpaceOnUse" gradientTransform="matrix(31.09259 0 0 -31.09259 324.8174 31.1067)" spreadMethod="pad" id="c"><stop offset="0" stop-color="#676465"/><stop offset=".0123" stop-color="#676465"/><stop offset=".3042" stop-color="#676465"/><stop offset=".9141" stop-color="#535051"/><stop offset="1" stop-color="#535051"/></linearGradient><linearGradient x1="0" y1="0" x2="1" y2="0" gradientUnits="userSpaceOnUse" gradientTransform="matrix(0 -51.00717 -51.00717 0 325.111 82.4668)" spreadMethod="pad" id="b"><stop offset="0" stop-color="#e9e9e9"/><stop offset=".0123" stop-color="#e9e9e9"/><stop offset=".3042" stop-color="#e9e9e9"/><stop offset=".9141" stop-color="#888687"/><stop offset="1" stop-color="#888687"/></linearGradient><linearGradient x1="0" y1="0" x2="1" y2="0" gradientUnits="userSpaceOnUse" gradientTransform="scale(56.89337 -56.89337) rotate(56.868 4.1819 4.551)" spreadMethod="pad" id="a"><stop offset="0" stop-color="#a7a5a6"/><stop offset=".1656" stop-color="#a7a5a6"/><stop offset=".8943" stop-color="#3d3a3b"/><stop offset=".908" stop-color="#3d3a3b"/><stop offset="1" stop-color="#3d3a3b"/></linearGradient><clipPath clipPathUnits="userSpaceOnUse" id="i"><path d="M324.589 31.027h31.136v54.311h-31.136z"/></clipPath><clipPath clipPathUnits="userSpaceOnUse" id="g"><path d="M327.714 85.226c-1.385 0-3.012-1.111-3.012-3.011V34.077c0-1.429 1.165-3.015 3.01-3.015h24.9c1.605 0 3.021 1.234 3.021 3.026v48.127c0 1.887-1.514 3.011-3.021 3.011z"/></clipPath><clipPath clipPathUnits="userSpaceOnUse" id="e"><path d="M327.714 85.226c-1.385 0-3.012-1.111-3.012-3.011V34.077c0-1.429 1.165-3.015 3.01-3.015h24.9c1.605 0 3.021 1.234 3.021 3.026v48.127c0 1.887-1.514 3.011-3.021 3.011z"/></clipPath></defs><path d="M327.545 85.335c-1.637-.068-2.956-1.428-2.956-3.079V34.032c0-1.46 1.03-2.691 2.398-3.005h26.361c1.256.288 2.225 1.348 2.377 2.648v48.937c-.173 1.487-1.417 2.66-2.934 2.723z" fill="url(#a)" transform="matrix(1.25 0 0 -1.25 -405.7363 106.6687)"/><path d="M324.712 82.467a2.965 2.965 0 01-.01-.252V34.077c0-.731.304-1.502.848-2.081v50.471z" fill="url(#b)" transform="matrix(1.25 0 0 -1.25 -405.7363 106.6687)"/><path d="M325.606 31.937c.517-.522 1.236-.875 2.106-.875h24.9c.819 0 1.59.322 2.148.875z" fill="url(#c)" transform="matrix(1.25 0 0 -1.25 -405.7363 106.6687)"/><path d="M354.696 83.479V31.876c.571.534.937 1.301.937 2.212v48.127c0 .471-.094.894-.259 1.264z" fill="url(#d)" transform="matrix(1.25 0 0 -1.25 -405.7363 106.6687)"/><g clip-path="url(#e)" transform="matrix(1.25 0 0 -1.25 -405.7363 106.6687)" fill-rule="evenodd"><path d="M353.7321 31.122l-1.002-.129-.11.905 1.002.129z" fill="#535051"/><path d="M353.7323 31.122l-.988-.127-.111.905.989.127z" fill="#545152"/><path d="M353.7325 31.122l-.975-.125-.111.905.976.125z" fill="#555253"/><path d="M353.7326 31.1225l-.962-.124-.111.905.963.124z" fill="#565354"/><path d="M353.7328 31.1225l-.949-.122-.111.905.95.122z" fill="#575454"/><path d="M353.7329 31.1225l-.936-.121-.111.905.937.121z" fill="#585555"/><path d="M353.7331 31.1225l-.923-.119-.111.905.924.119z" fill="#585556"/><path d="M353.7332 31.1225l-.91-.117-.111.905.911.117z" fill="#595657"/><path d="M353.7333 31.1225l-.897-.115-.11.905.897.115z" fill="#5a5758"/><path d="M353.7335 31.1225l-.884-.114-.111.905.885.114z" fill="#5b5859"/><path d="M353.7336 31.1225l-.871-.112-.11.905.871.113z" fill="#5c595a"/><path d="M353.7338 31.123l-.858-.111-.11.905.858.111z" fill="#5d5a5a"/><path d="M353.734 31.123l-.845-.109-.11.905.845.109z" fill="#5e5b5b"/><path d="M353.7341 31.123l-.832-.107-.11.905.832.107z" fill="#5e5b5c"/><path d="M353.7343 31.123l-.819-.105-.11.905.819.105z" fill="#5f5c5d"/><path d="M353.7344 31.123l-.806-.103-.11.905.806.103z" fill="#605d5e"/><path d="M353.7346 31.123l-.793-.102-.11.905.793.102z" fill="#615e5f"/><path d="M353.7347 31.123l-.78-.1-.11.905.78.101z" fill="#625f60"/><path d="M353.7349 31.1235l-.767-.099-.11.905.767.099z" fill="#636060"/><path d="M353.735 31.1235l-.754-.097-.11.905.754.097z" fill="#636161"/><path d="M353.7351 31.1235l-.741-.095-.11.905.741.095z" fill="#646262"/><path d="M353.7353 31.1235l-.728-.093-.11.905.728.093z" fill="#656263"/><path d="M353.7354 31.1235l-.715-.092-.11.906.715.091z" fill="#666364"/><path d="M353.7356 31.1235l-.702-.09-.11.905.702.09z" fill="#676465"/><path d="M353.7357 31.1235l-.689-.088-.11.905.689.088z" fill="#686566"/><path d="M353.7359 31.1235l-.676-.087-.11.906.676.087z" fill="#696666"/><path d="M353.7361 31.124l-.663-.085-.11.905.663.085z" fill="#696767"/><path d="M353.7362 31.124l-.65-.084-.11.906.65.083z" fill="#6a6768"/><path d="M353.7364 31.124l-.637-.082-.11.906.637.081z" fill="#6b6869"/><path d="M353.7365 31.124l-.624-.08-.11.905.624.08z" fill="#6c696a"/><path d="M353.7367 31.124l-.611-.078-.11.905.611.078z" fill="#6d6a6b"/><path d="M353.7368 31.124l-.598-.077-.11.905.598.077z" fill="#6e6b6c"/><path d="M353.737 31.124l-.585-.075-.11.905.585.076z" fill="#6e6c6c"/><path d="M353.7371 31.1245l-.572-.074-.11.905.572.074z" fill="#6f6d6d"/><path d="M353.7372 31.1245l-.559-.072-.11.905.559.072z" fill="#706d6e"/><path d="M353.7374 31.1245l-.546-.07-.11.905.546.07z" fill="#716e6f"/><path d="M353.7375 31.1245l-.533-.068-.11.905.533.068z" fill="#726f70"/><path d="M353.7377 31.1245l-.52-.066-.11.905.52.066z" fill="#737071"/><path d="M353.7379 31.1245l-.507-.065-.11.905.507.065z" fill="#747172"/><path d="M353.738 31.1245l-.494-.063-.11.905.494.064z" fill="#747272"/><path d="M353.7381 31.1245l-.48-.061-.111.905.481.062z" fill="#757373"/><path d="M353.7383 31.125l-.468-.06-.11.905.468.06z" fill="#767374"/><path d="M353.7384 31.125l-.454-.058-.111.905.455.058z" fill="#777475"/><path d="M353.7386 31.125l-.442-.056-.11.905.442.056z" fill="#787576"/><path d="M353.7388 31.125l-.428-.055-.111.905.429.055z" fill="#797677"/><path d="M353.7389 31.125l-.415-.053-.111.905.416.053z" fill="#797777"/><path d="M353.7391 31.125l-.402-.051-.111.905.403.052z" fill="#7a7878"/><path d="M353.7392 31.125l-.389-.049-.111.905.39.05z" fill="#7b7979"/><path d="M354.3029 31.4137l-.854-.374-.286.87.78.342z" fill="#7b7979"/><path d="M354.3032 31.4142l-.838-.367-.289.869.767.335z" fill="#7a7878"/><path d="M354.3033 31.4142l-.822-.36-.291.868.753.33z" fill="#797777"/><path d="M354.3035 31.4142l-.806-.352-.294.866.74.324z" fill="#787677"/><path d="M354.3037 31.4147l-.79-.346-.296.866.726.317z" fill="#787576"/><path d="M354.3039 31.4147l-.774-.339-.298.865.712.312z" fill="#777475"/><path d="M354.3041 31.4147l-.758-.332-.301.864.699.306z" fill="#767374"/><path d="M354.3043 31.4152l-.742-.325-.303.863.685.299z" fill="#757373"/><path d="M354.3045 31.4152l-.726-.318-.306.862.672.294z" fill="#747272"/><path d="M354.3047 31.4152l-.71-.31-.308.86.658.288z" fill="#737171"/><path d="M354.3049 31.4156l-.694-.304-.311.86.645.281z" fill="#727071"/><path d="M354.3051 31.4156l-.678-.297-.313.859.631.276z" fill="#726f70"/><path d="M354.3053 31.4156l-.663-.29-.315.857.618.271z" fill="#716e6f"/><path d="M354.3055 31.4162l-.647-.283-.317.856.604.264z" fill="#706d6e"/><path d="M354.3056 31.4162l-.631-.276-.319.855.59.259z" fill="#6f6d6d"/><path d="M354.3058 31.4162l-.615-.269-.322.855.577.252z" fill="#6e6c6c"/><path d="M354.306 31.4166l-.599-.262-.324.853.563.246z" fill="#6d6b6b"/><path d="M354.3062 31.4166l-.583-.255-.327.852.55.241z" fill="#6c6a6a"/><path d="M354.3064 31.4166l-.567-.248-.329.852.536.234z" fill="#6c696a"/><path d="M354.3066 31.4171l-.551-.241-.332.85.523.228z" fill="#6b6869"/><path d="M354.3068 31.4171l-.535-.234-.334.849.509.223z" fill="#6a6768"/><path d="M354.307 31.4171l-.519-.227-.337.848.496.217z" fill="#696667"/><path d="M354.3072 31.4176l-.503-.22-.339.847.482.21z" fill="#686666"/><path d="M354.3074 31.4176l-.487-.213-.341.846.468.205z" fill="#676565"/><path d="M354.3076 31.4176l-.471-.206-.344.845.455.199z" fill="#676464"/><path d="M354.3077 31.4181l-.455-.199-.346.844.441.192z" fill="#666364"/><path d="M354.308 31.4181l-.439-.192-.349.843.428.187z" fill="#656263"/><path d="M354.3081 31.4181l-.423-.185-.351.842.414.181z" fill="#646162"/><path d="M354.3083 31.4181l-.408-.177-.353.84.401.175z" fill="#636061"/><path d="M354.3085 31.4186l-.392-.171-.355.84.387.169z" fill="#626060"/><path d="M354.3087 31.4186l-.376-.164-.357.839.373.163z" fill="#615f5f"/><path d="M354.3089 31.4186l-.36-.157-.36.838.36.157z" fill="#615e5e"/><path d="M355.0777 32.0592l-.774-.649-.581.703.774.649z" fill="#615e5e"/><path d="M355.0813 32.0657l-.759-.64-.581.703.754.642z" fill="#605d5e"/><path d="M355.0847 32.0726l-.744-.631-.581.703.733.634z" fill="#5f5c5d"/><path d="M355.0882 32.0795l-.729-.622-.581.703.713.627z" fill="#5e5b5c"/><path d="M355.0917 32.0859l-.715-.613-.58.703.692.62z" fill="#5d5a5b"/><path d="M355.0952 32.0929l-.7-.605-.58.703.671.614z" fill="#5c595a"/><path d="M355.0987 32.0993l-.685-.596-.581.703.652.607z" fill="#5c5959"/><path d="M355.1022 32.1062l-.67-.587-.581.703.631.6z" fill="#5b5858"/><path d="M355.1056 32.1131l-.655-.578-.581.703.611.592z" fill="#5a5758"/><path d="M355.1091 32.1196l-.64-.569-.581.702.59.586z" fill="#595657"/><path d="M355.1126 32.1265l-.625-.561-.581.703.569.579z" fill="#585556"/><path d="M355.1161 32.1334l-.611-.552-.58.703.549.572z" fill="#575455"/><path d="M355.1196 32.1398l-.596-.543-.58.703.528.565z" fill="#565354"/><path d="M355.1231 32.1467l-.581-.534-.581.703.508.557z" fill="#565353"/><path d="M355.1266 32.1532l-.566-.525-.581.702.488.551z" fill="#555252"/><path d="M355.13 32.1601l-.551-.517-.581.703.467.544z" fill="#545152"/><path d="M355.1335 32.167l-.536-.508-.581.703.447.537z" fill="#535051"/><path d="M355.1371 32.1734l-.521-.499-.581.703.426.53z" fill="#524f50"/><path d="M355.1405 32.1804l-.507-.49-.58.702.406.523z" fill="#514e4f"/><path d="M355.144 32.1868l-.492-.481-.58.702.385.517z" fill="#514d4e"/><path d="M355.1476 32.1937l-.477-.473-.581.703.365.509z" fill="#504c4d"/><path d="M355.151 32.2006l-.462-.464-.581.703.345.501z" fill="#4f4c4c"/><path d="M355.1544 32.2071l-.447-.455-.581.703.324.495z" fill="#4e4b4b"/><path d="M355.158 32.214l-.432-.446-.581.702.304.488z" fill="#4d4a4b"/><path d="M355.1615 32.2209l-.417-.438-.581.703.283.481z" fill="#4c494a"/><path d="M355.1649 32.2273l-.402-.429-.581.703.262.474z" fill="#4b4849"/><path d="M355.1685 32.2342l-.388-.42-.58.702.242.468z" fill="#4b4748"/><path d="M355.6021 33.0311l-.592-.818-.735.54.592.818z" fill="#4b4748"/><path d="M355.6022 33.0311l-.585-.807-.734.538.583.809z" fill="#4b4849"/><path d="M355.6022 33.0316l-.577-.797-.734.536.573.801z" fill="#4c494a"/><path d="M355.6023 33.0316l-.569-.786-.734.533.564.793z" fill="#4d4a4b"/><path d="M355.6024 33.0316l-.562-.775-.733.531.554.785z" fill="#4e4b4b"/><path d="M355.6024 33.0316l-.554-.764-.733.528.545.777z" fill="#4f4c4c"/><path d="M355.6024 33.0321l-.546-.754-.733.527.536.768z" fill="#504c4d"/><path d="M355.6025 33.0321l-.538-.743-.733.524.526.76z" fill="#514d4e"/><path d="M355.6026 33.0321l-.531-.733-.732.522.517.752z" fill="#514e4f"/><path d="M355.6026 33.0326l-.523-.722-.732.52.507.743z" fill="#524f50"/><path d="M355.6027 33.0326l-.515-.711-.732.517.498.735z" fill="#535051"/><path d="M355.6028 33.0326l-.508-.7-.731.515.488.727z" fill="#545152"/><path d="M355.6028 33.0331l-.5-.69-.731.513.479.719z" fill="#555252"/><path d="M355.6028 33.0331l-.492-.68-.731.511.469.711z" fill="#565353"/><path d="M355.6029 33.0331l-.485-.669-.73.509.46.702z" fill="#565354"/><path d="M355.603 33.0336l-.477-.658-.73.506.451.694z" fill="#575455"/><path d="M355.603 33.0336l-.469-.648-.73.505.441.685z" fill="#585556"/><path d="M355.6031 33.0336l-.461-.637-.73.502.432.678z" fill="#595657"/><path d="M355.6031 33.0336l-.454-.626-.729.5.422.669z" fill="#5a5758"/><path d="M355.6032 33.0341l-.446-.616-.729.498.413.661z" fill="#5b5858"/><path d="M355.6032 33.0341l-.438-.605-.729.495.403.653z" fill="#5c5959"/><path d="M355.6032 33.0341l-.431-.594-.728.493.394.644z" fill="#5c595a"/><path d="M355.6033 33.0345l-.423-.584-.728.491.384.636z" fill="#5d5a5b"/><path d="M355.6034 33.0345l-.415-.573-.728.488.375.629z" fill="#5e5b5c"/><path d="M355.6034 33.0345l-.408-.562-.727.486.366.62z" fill="#5f5c5d"/><path d="M355.6035 33.035l-.4-.552-.727.484.356.612z" fill="#605d5e"/><path d="M355.6035 33.035l-.392-.541-.727.482.347.603z" fill="#615e5e"/><path d="M355.6036 33.035l-.385-.53-.726.479.337.595z" fill="#615e5f"/><path d="M355.6036 33.0355l-.377-.52-.726.477.328.587z" fill="#625f60"/><path d="M355.6037 33.0355l-.369-.509-.726.475.318.578z" fill="#636061"/><path d="M355.6038 33.0355l-.361-.498-.726.472.309.571z" fill="#646162"/><path d="M355.6038 33.036l-.354-.488-.725.471.299.562z" fill="#656263"/><path d="M355.6039 33.036l-.346-.478-.725.469.29.554z" fill="#666364"/><path d="M355.6039 33.036l-.338-.467-.725.467.28.545z" fill="#666464"/><path d="M355.604 33.036l-.331-.456-.724.464.271.537z" fill="#676465"/><path d="M355.6041 33.0365l-.323-.445-.724.461.262.529z" fill="#686566"/><path d="M355.6042 33.0365l-.315-.435-.724.46.252.521z" fill="#696667"/><path d="M355.6042 33.0365l-.308-.424-.723.458.243.512z" fill="#6a6768"/><path d="M355.6042 33.037l-.3-.414-.723.456.233.504z" fill="#6b6869"/><path d="M355.6043 33.037l-.292-.403-.723.453.224.496z" fill="#6b6969"/><path d="M355.6043 33.037l-.285-.392-.722.451.214.487z" fill="#6c6a6a"/><path d="M355.6044 33.0375l-.277-.382-.722.449.205.479z" fill="#6d6a6b"/><path d="M355.6044 33.0375l-.269-.371-.722.446.195.472z" fill="#6e6b6c"/><path d="M355.6045 33.0375l-.261-.36-.722.444.186.463z" fill="#6f6c6d"/><path d="M355.6046 33.038l-.254-.349-.721.441.177.455z" fill="#706d6e"/><path d="M355.6046 33.038l-.246-.339-.721.439.167.447z" fill="#706e6e"/><path d="M355.6047 33.038l-.238-.328-.721.437.158.438z" fill="#716f6f"/><path d="M355.6047 33.0385l-.231-.318-.72.435.148.43z" fill="#727070"/></g><path d="M327.714 85.226c-1.01 0-2.15-.592-2.692-1.649h30.306c-.517 1.053-1.618 1.649-2.716 1.649z" fill="url(#f)" transform="matrix(1.25 0 0 -1.25 -405.7363 106.6687)"/><g clip-path="url(#g)" transform="matrix(1.25 0 0 -1.25 -405.7363 106.6687)" fill-rule="evenodd"><path d="M325.7637 83.1734l-.729.407.36.603.742.576.302-.743-.395-.427z" fill="#f2f2f2"/><path d="M326.1456 83.1534l-.265-.581-1.35.601.265.581z" fill="#f4f4f4"/><path d="M326.1417 83.1438l-.261-.572-1.35.601.261.572z" fill="#f3f3f3"/><path d="M326.1378 83.1343l-.256-.562-1.35.6.256.563z" fill="#f2f2f2"/><path d="M326.1339 83.1248l-.252-.553-1.349.6.251.554z" fill="#f2f1f1"/><path d="M326.13 83.1152l-.247-.544-1.35.601.247.544z" fill="#f1f0f1"/><path d="M326.1261 83.1057l-.243-.535-1.349.601.242.535z" fill="#f0f0f0"/><path d="M326.1222 83.0961l-.238-.525-1.35.6.238.526z" fill="#efefef"/><path d="M326.1183 83.0866l-.234-.516-1.349.6.233.517z" fill="#eee"/><path d="M326.1144 83.077l-.229-.507-1.35.601.229.507z" fill="#ededed"/><path d="M326.1105 83.0675l-.225-.498-1.349.601.224.498z" fill="#edecec"/><path d="M326.1066 83.058l-.22-.488-1.35.6.22.489z" fill="#ecebeb"/><path d="M326.1027 83.0484l-.216-.479-1.349.601.215.479z" fill="#ebeaea"/><path d="M326.0988 83.0389l-.211-.47-1.35.601.211.47z" fill="#eaeaea"/><path d="M326.0949 83.0293l-.206-.461-1.35.601.206.461z" fill="#e9e9e9"/><path d="M326.091 83.0198l-.202-.451-1.35.6.202.452z" fill="#e8e8e8"/><path d="M326.0871 83.0103l-.197-.442-1.35.601.197.442z" fill="#e7e7e7"/><path d="M326.0832 83.0007l-.193-.433-1.35.601.193.433z" fill="#e7e6e6"/><path d="M326.0793 82.9912l-.188-.424-1.35.601.188.424z" fill="#e6e5e6"/><path d="M326.0754 82.9816l-.184-.414-1.349.6.183.415z" fill="#e5e5e5"/><path d="M326.0715 82.9721l-.179-.405-1.35.601.179.405z" fill="#e4e4e4"/><path d="M326.0675 82.9626l-.175-.396-1.349.601.174.396z" fill="#e3e3e3"/><path d="M326.0636 82.953l-.17-.386-1.35.6.17.387z" fill="#e3e2e2"/><path d="M326.0597 82.9435l-.166-.377-1.349.6.165.378z" fill="#e2e1e1"/><path d="M326.0558 82.9339l-.161-.368-1.35.601.161.368z" fill="#e1e0e0"/><path d="M326.0519 82.9244l-.157-.359-1.349.601.156.359z" fill="#e0dfe0"/><path d="M326.048 82.9149l-.152-.349-1.35.6.152.35z" fill="#dfdfdf"/><path d="M326.0441 82.9053l-.148-.34-1.349.6.147.341z" fill="#dedede"/><path d="M326.0402 82.8958l-.143-.331-1.35.601.143.331z" fill="#dedddd"/><path d="M326.0363 82.8863l-.138-.322-1.35.601.138.322z" fill="#dddcdc"/><path d="M326.0324 82.8767l-.134-.312-1.35.6.134.313z" fill="#dcdbdb"/><path d="M326.0285 82.8672l-.129-.303-1.35.6.129.304z" fill="#dbdada"/><path d="M326.0246 82.8576l-.125-.294-1.35.601.125.294z" fill="#dadada"/><path d="M326.0207 82.8481l-.12-.285-1.35.601.12.285z" fill="#d9d9d9"/><path d="M326.0168 82.8385l-.116-.275-1.349.6.115.276z" fill="#d9d8d8"/><path d="M326.0129 82.829l-.111-.266-1.35.6.111.267z" fill="#d8d7d7"/><path d="M326.009 82.8194l-.107-.257-1.349.601.106.257z" fill="#d7d6d6"/><path d="M326.0051 82.8099l-.102-.248-1.35.601.102.248z" fill="#d6d5d6"/><path d="M326.0012 82.8004l-.098-.238-1.349.6.097.239z" fill="#d5d4d5"/><path d="M324.1571 82.6382l.222.599 1.39-.5-.222-.599z" fill="#e9e9e9"/><path d="M324.1577 82.6548l.216.584 1.39-.5-.216-.584z" fill="#e8e8e8"/><path d="M324.1584 82.6714l.21.569 1.39-.5-.21-.569z" fill="#e7e7e7"/><path d="M324.1589 82.688l.204.555 1.39-.5-.204-.555z" fill="#e7e6e6"/><path d="M324.1595 82.7046l.198.54 1.39-.5-.198-.54z" fill="#e6e5e5"/><path d="M324.1602 82.7213l.192.525 1.391-.5-.193-.525z" fill="#e5e4e4"/><path d="M324.1608 82.7379l.187.51 1.39-.5-.187-.51z" fill="#e4e4e4"/><path d="M324.1614 82.7545l.181.496 1.39-.5-.181-.496z" fill="#e3e3e3"/><path d="M324.162 82.7711l.175.481 1.39-.5-.175-.481z" fill="#e2e2e2"/><path d="M324.1626 82.7877l.169.466 1.39-.5-.169-.466z" fill="#e2e1e1"/><path d="M324.1632 82.8043l.163.451 1.39-.5-.163-.451z" fill="#e1e0e0"/><path d="M324.1638 82.8209l.157.437 1.39-.5-.157-.437z" fill="#e0dfe0"/><path d="M324.1645 82.8375l.151.422 1.39-.5-.151-.422z" fill="#dfdfdf"/><path d="M324.165 82.8541l.145.407 1.39-.5-.145-.407z" fill="#dedede"/><path d="M324.1657 82.8707l.139.392 1.39-.5-.139-.392z" fill="#dedddd"/><path d="M324.1663 82.8873l.133.378 1.39-.5-.133-.378z" fill="#dddcdc"/><path d="M324.1669 82.904l.127.363 1.39-.5-.127-.363z" fill="#dcdbdb"/><path d="M324.1675 82.9206l.121.348 1.39-.5-.121-.348z" fill="#dbdada"/><path d="M324.1682 82.9372l.115.333 1.391-.5-.116-.333z" fill="#dadada"/><path d="M324.1688 82.9538l.11.319 1.39-.5-.11-.319z" fill="#d9d9d9"/><path d="M324.1694 82.9704l.104.304 1.39-.5-.104-.304z" fill="#d9d8d8"/><path d="M324.17 82.987l.098.289 1.39-.5-.098-.289z" fill="#d8d7d7"/><path d="M324.1706 83.0036l.092.274 1.39-.5-.092-.274z" fill="#d7d6d6"/><path d="M324.1712 83.0202l.086.26 1.39-.5-.086-.26z" fill="#d6d5d6"/><path d="M324.1718 83.0368l.08.245 1.39-.5-.08-.245z" fill="#d5d4d5"/><path d="M327.1392 84.2947l-.681-.321-.388.825.68.321z" fill="#f4f4f4"/><path d="M327.1336 84.2921l-.666-.314-.389.825.666.314z" fill="#f3f3f3"/><path d="M327.128 84.2894l-.652-.307-.388.825.652.307z" fill="#f2f2f2"/><path d="M327.1223 84.2868l-.637-.3-.389.825.637.3z" fill="#f2f1f1"/><path d="M327.1167 84.2841l-.622-.293-.389.825.622.293z" fill="#f1f0f1"/><path d="M327.1111 84.2815l-.608-.286-.388.825.608.286z" fill="#f0f0f0"/><path d="M327.1055 84.2788l-.593-.279-.389.825.593.279z" fill="#efefef"/><path d="M327.0999 84.2762l-.579-.273-.388.825.578.273z" fill="#eee"/><path d="M327.0942 84.2736l-.564-.266-.389.825.564.266z" fill="#ededed"/><path d="M327.0887 84.2709l-.549-.259-.389.825.549.259z" fill="#edecec"/><path d="M327.083 84.2683l-.535-.252-.388.825.534.252z" fill="#ecebeb"/><path d="M327.0774 84.2656l-.52-.245-.389.825.52.245z" fill="#ebeaea"/><path d="M327.0718 84.2629l-.506-.238-.388.825.505.238z" fill="#eaeaea"/><path d="M327.0662 84.2603l-.491-.231-.389.825.491.231z" fill="#e9e9e9"/><path d="M327.0605 84.2577l-.476-.224-.389.825.476.224z" fill="#e8e8e8"/><path d="M327.0549 84.255l-.462-.217-.388.824.461.218z" fill="#e7e7e7"/><path d="M327.0493 84.2523l-.447-.211-.389.825.447.211z" fill="#e7e6e6"/><path d="M327.0437 84.2497l-.433-.204-.388.825.432.204z" fill="#e6e5e6"/><path d="M327.038 84.2471l-.418-.197-.389.825.418.197z" fill="#e5e5e5"/><path d="M327.0324 84.2444l-.403-.19-.389.825.403.19z" fill="#e4e4e4"/><path d="M327.0268 84.2418l-.389-.183-.388.825.388.183z" fill="#e3e3e3"/><path d="M327.0212 84.2391l-.374-.176-.389.825.374.176z" fill="#e3e2e2"/><path d="M327.0156 84.2365l-.36-.169-.388.825.359.169z" fill="#e2e1e1"/><path d="M327.0099 84.2338l-.345-.162-.389.824.345.163z" fill="#e1e0e0"/><path d="M327.0043 84.2312l-.33-.156-.389.825.33.156z" fill="#e0dfe0"/><path d="M326.9987 84.2285l-.316-.149-.388.825.315.149z" fill="#dfdfdf"/><path d="M326.9931 84.2259l-.301-.142-.389.825.301.142z" fill="#dedede"/><path d="M326.9875 84.2232l-.287-.135-.388.825.286.135z" fill="#dedddd"/><path d="M326.9818 84.2206l-.272-.128-.389.825.272.128z" fill="#dddcdc"/><path d="M326.9762 84.2179l-.257-.121-.389.825.257.121z" fill="#dcdbdb"/><path d="M326.9706 84.2153l-.243-.114-.388.825.242.114z" fill="#dbdada"/><path d="M326.965 84.2127l-.228-.107-.389.824.228.108z" fill="#dadada"/><path d="M326.9594 84.21l-.214-.101-.388.825.213.101z" fill="#d9d9d9"/><path d="M326.9537 84.2074l-.199-.094-.388.825.198.094z" fill="#d9d8d8"/><path d="M326.9481 84.2047l-.184-.087-.389.825.184.087z" fill="#d8d7d7"/><path d="M326.9425 84.2021l-.17-.08-.388.825.169.08z" fill="#d7d6d6"/><path d="M326.9369 84.1994l-.155-.073-.389.825.155.073z" fill="#d6d5d6"/><path d="M326.9312 84.1967l-.141-.066-.388.825.14.066z" fill="#d5d4d5"/><path d="M353.7604 84.0279l-.652.375.454.791.848-.331z" fill="#bbbaba"/><path d="M353.7383 84.0406l-.595.342.455.791.768-.303z" fill="#bbbabb"/><path d="M353.7162 84.0533l-.537.309.454.791.69-.275z" fill="#bcbbbb"/><path d="M353.694 84.0661l-.48.276.455.79.61-.246z" fill="#bdbcbc"/><path d="M353.6718 84.0788l-.422.243.454.79.531-.218z" fill="#bebcbd"/><path d="M353.6497 84.0915l-.365.21.455.79.451-.19z" fill="#bfbdbe"/><path d="M353.6276 84.1042l-.307.177.454.79.373-.162z" fill="#bfbebe"/><path d="M353.6055 84.117l-.25.144.455.79.293-.134z" fill="#c0bfbf"/><path d="M353.5833 84.1297l-.192.111.454.79.214-.106z" fill="#c1c0c0"/><path d="M353.5612 84.1424l-.135.077.455.791.134-.077z" fill="#c1c0c1"/><path d="M354.5532 83.1434l-.367.657.796.445.367-.658z" fill="#bbbaba"/><path d="M354.5534 83.1432l-.361.646.796.445.361-.647z" fill="#bab9b9"/><path d="M354.5536 83.1431l-.355.635.796.445.355-.636z" fill="#b9b8b8"/><path d="M354.5538 83.1429l-.349.624.796.445.349-.625z" fill="#b8b7b7"/><path d="M354.5539 83.1427l-.343.614.796.444.343-.614z" fill="#b8b6b7"/><path d="M354.5542 83.1425l-.337.603.796.444.337-.603z" fill="#b7b5b6"/><path d="M354.5544 83.1423l-.331.592.796.444.331-.592z" fill="#b6b4b5"/><path d="M354.5545 83.1421l-.325.581.796.444.325-.581z" fill="#b5b4b4"/><path d="M354.5547 83.1419l-.319.57.796.445.319-.571z" fill="#b4b3b3"/><path d="M354.5548 83.1417l-.313.559.796.445.313-.56z" fill="#b3b2b2"/><path d="M354.5551 83.1416l-.307.548.796.445.307-.549z" fill="#b2b1b1"/><path d="M354.5552 83.1414l-.301.537.796.445.301-.538z" fill="#b2b0b1"/><path d="M354.5555 83.1412l-.295.527.796.444.295-.527z" fill="#b1afb0"/><path d="M354.5556 83.141l-.289.516.796.444.289-.516z" fill="#b0afaf"/><path d="M354.5558 83.1409l-.283.505.796.444.283-.505z" fill="#afaeae"/><path d="M354.556 83.1406l-.277.494.796.444.277-.494z" fill="#aeadad"/><path d="M354.5562 83.1405l-.271.483.796.445.271-.483z" fill="#adacac"/><path d="M354.5564 83.1402l-.265.472.796.445.265-.473z" fill="#adabac"/><path d="M354.5566 83.1401l-.259.461.796.445.259-.461z" fill="#acaaab"/><path d="M354.5568 83.1399l-.253.45.796.445.253-.45z" fill="#aba9aa"/><path d="M354.5569 83.1397l-.247.44.796.444.247-.439z" fill="#aaa9a9"/><path d="M354.5571 83.1395l-.241.429.796.444.241-.428z" fill="#a9a8a8"/><path d="M354.5573 83.1393l-.235.418.796.444.235-.417z" fill="#a9a7a7"/><path d="M354.5575 83.1392l-.229.407.796.444.229-.406z" fill="#a8a6a6"/><path d="M354.5577 83.1389l-.223.396.796.445.223-.396z" fill="#a7a5a6"/><path d="M354.5579 83.1388l-.217.385.796.445.217-.385z" fill="#a6a4a5"/><path d="M354.5581 83.1386l-.211.374.796.445.211-.374z" fill="#a5a3a4"/><path d="M354.5583 83.1384l-.205.363.796.445.205-.363z" fill="#a4a3a3"/><path d="M354.5585 83.1382l-.199.353.796.444.199-.352z" fill="#a3a2a2"/><path d="M354.5587 83.138l-.193.342.796.444.193-.341z" fill="#a3a1a1"/><path d="M354.6649 33.3361l.167.589.916-.114-.206-.725z" fill="#4b4748"/><path d="M354.6649 33.3356l.166.585.915-.117-.204-.717z" fill="#4b4849"/><path d="M354.6649 33.3356l.165.58.914-.12-.202-.709z" fill="#4c494a"/><path d="M354.6649 33.3356l.163.576.913-.124-.199-.701z" fill="#4d4a4b"/><path d="M354.6649 33.3351l.162.571.912-.126-.197-.694z" fill="#4e4b4b"/><path d="M354.6649 33.3351l.161.567.911-.129-.195-.687z" fill="#4f4c4c"/><path d="M354.6649 33.3351l.16.563.91-.132-.193-.68z" fill="#504c4d"/><path d="M354.6649 33.3346l.158.558.91-.134-.191-.673z" fill="#514d4e"/><path d="M354.6649 33.3346l.157.554.909-.138-.189-.665z" fill="#514e4f"/><path d="M354.6649 33.3346l.156.549.908-.141-.187-.657z" fill="#524f50"/><path d="M354.6649 33.3341l.154.545.907-.144-.184-.65z" fill="#535051"/><path d="M354.6649 33.3341l.153.54.906-.146-.182-.643z" fill="#545152"/><path d="M354.6649 33.3341l.152.535.905-.148-.18-.636z" fill="#555252"/><path d="M354.6649 33.3336l.15.531.905-.152-.178-.628z" fill="#565353"/><path d="M354.6649 33.3336l.149.526.904-.154-.176-.621z" fill="#565354"/><path d="M354.6649 33.3336l.148.522.903-.158-.174-.613z" fill="#575455"/><path d="M354.6649 33.3331l.146.518.903-.161-.172-.606z" fill="#585556"/><path d="M354.6649 33.3331l.145.513.901-.163-.169-.599z" fill="#595657"/><path d="M354.6649 33.3331l.144.509.9-.167-.167-.591z" fill="#5a5758"/><path d="M354.6649 33.3326l.142.504.9-.169-.165-.584z" fill="#5b5858"/><path d="M354.6649 33.3326l.141.5.899-.172-.163-.577z" fill="#5c5959"/><path d="M354.6649 33.3326l.14.495.898-.175-.161-.569z" fill="#5c595a"/><path d="M354.6649 33.3321l.138.491.898-.178-.159-.562z" fill="#5d5a5b"/><path d="M354.6649 33.3321l.137.486.897-.181-.157-.554z" fill="#5e5b5c"/><path d="M354.6649 33.3321l.136.481.895-.183-.154-.547z" fill="#5f5c5d"/><path d="M354.6649 33.3316l.134.478.895-.187-.152-.54z" fill="#605d5e"/><path d="M354.6649 33.3316l.133.473.894-.189-.15-.533z" fill="#615e5e"/><path d="M354.6649 33.3316l.132.468.893-.192-.148-.525z" fill="#615e5f"/><path d="M354.6649 33.3311l.13.464.893-.195-.146-.518z" fill="#625f60"/><path d="M354.6649 33.3311l.129.459.892-.198-.144-.51z" fill="#636061"/><path d="M354.6649 33.3311l.128.454.891-.2-.142-.503z" fill="#646162"/><path d="M354.6649 33.3306l.126.45.891-.203-.14-.496z" fill="#656263"/><path d="M354.6649 33.3306l.125.446.889-.207-.137-.488z" fill="#666364"/><path d="M354.6649 33.3306l.124.441.888-.209-.135-.481z" fill="#666464"/><path d="M354.6649 33.3301l.122.437.888-.212-.133-.474z" fill="#676465"/><path d="M354.6649 33.3301l.121.432.887-.215-.131-.466z" fill="#686566"/><path d="M354.6649 33.3301l.12.428.886-.218-.129-.459z" fill="#696667"/><path d="M354.6649 33.3297l.118.423.886-.22-.127-.452z" fill="#6a6768"/><path d="M354.6649 33.3297l.117.419.885-.224-.125-.444z" fill="#6b6869"/><path d="M354.6649 33.3297l.116.414.883-.226-.122-.437z" fill="#6b6969"/><path d="M354.6649 33.3291l.114.41.883-.229-.12-.43z" fill="#6c6a6a"/><path d="M354.6649 33.3291l.113.405.882-.232-.118-.422z" fill="#6d6a6b"/><path d="M354.6649 33.3291l.112.4.881-.234-.116-.415z" fill="#6e6b6c"/><path d="M354.6649 33.3291l.11.396.881-.238-.114-.407z" fill="#6f6c6d"/><path d="M354.6649 33.3287l.109.391.88-.24-.112-.4z" fill="#706d6e"/><path d="M354.6649 33.3287l.108.387.879-.243-.11-.393z" fill="#706e6e"/><path d="M354.6649 33.3287l.107.383.877-.247-.107-.385z" fill="#716f6f"/><path d="M354.6649 33.3282l.105.378.877-.249-.105-.378z" fill="#727070"/><path d="M355.2747 83.7783l.26-.58-.832-.372-.26.58z" fill="#d3d2d2"/><path d="M355.2746 83.7784l.257-.573-.832-.372-.257.573z" fill="#d2d1d2"/><path d="M355.2746 83.7785l.254-.566-.833-.373-.253.567z" fill="#d1d0d1"/><path d="M355.2745 83.7786l.251-.559-.833-.373-.25.56z" fill="#d0d0d0"/><path d="M355.2744 83.7787l.248-.552-.833-.373-.247.553z" fill="#d0cfcf"/><path d="M355.2743 83.7788l.245-.545-.833-.373-.244.546z" fill="#cfcece"/><path d="M355.2742 83.7789l.242-.538-.833-.373-.241.539z" fill="#cecdcd"/><path d="M355.2741 83.779l.239-.531-.833-.373-.238.532z" fill="#cdcccc"/><path d="M355.274 83.7791l.236-.525-.833-.372-.235.525z" fill="#cccbcb"/><path d="M355.2739 83.7792l.233-.518-.833-.372-.232.518z" fill="#cbcacb"/><path d="M355.2738 83.7793l.229-.511-.832-.372-.229.511z" fill="#cac9ca"/><path d="M355.2737 83.7794l.227-.504-.833-.372-.226.504z" fill="#cac9c9"/><path d="M355.2737 83.7795l.223-.497-.832-.372-.223.497z" fill="#c9c8c8"/><path d="M355.2736 83.7796l.22-.49-.832-.372-.22.49z" fill="#c8c7c7"/><path d="M355.2735 83.7797l.217-.483-.832-.373-.217.484z" fill="#c7c6c6"/><path d="M355.2734 83.7798l.214-.476-.832-.373-.214.477z" fill="#c6c5c5"/><path d="M355.2733 83.7799l.211-.469-.832-.373-.211.47z" fill="#c5c4c5"/><path d="M355.2733 83.78l.208-.462-.832-.373-.208.463z" fill="#c4c3c4"/><path d="M355.2731 83.7801l.205-.455-.832-.373-.205.456z" fill="#c4c3c3"/><path d="M355.273 83.7802l.202-.449-.832-.372-.202.449z" fill="#c3c2c2"/><path d="M355.273 83.7803l.199-.442-.832-.372-.199.442z" fill="#c2c1c1"/><path d="M355.2729 83.7804l.196-.435-.832-.372-.196.435z" fill="#c1c0c0"/><path d="M355.2728 83.7805l.193-.428-.832-.372-.193.428z" fill="#c0bfbf"/><path d="M355.2728 83.7806l.19-.421-.832-.372-.19.421z" fill="#bfbebf"/><path d="M355.2726 83.7807l.187-.414-.833-.372-.186.414z" fill="#bfbdbe"/><path d="M355.2726 83.7808l.184-.407-.833-.373-.183.408z" fill="#bebdbd"/><path d="M355.2725 83.7809l.181-.4-.833-.373-.18.401z" fill="#bdbcbc"/><path d="M355.2724 83.781l.178-.393-.833-.373-.177.394z" fill="#bcbbbb"/><path d="M355.2722 83.7811l.175-.386-.833-.373-.174.387z" fill="#bbbaba"/><path d="M355.2722 83.7812l.172-.379-.833-.373-.171.38z" fill="#bab9b9"/><path d="M355.2721 83.7813l.169-.373-.833-.372-.168.373z" fill="#b9b8b9"/><path d="M355.272 83.7814l.165-.366-.832-.372-.165.366z" fill="#b9b7b8"/><path d="M355.272 83.7815l.162-.359-.832-.372-.162.359z" fill="#b8b6b7"/><path d="M355.2718 83.7816l.159-.352-.832-.372-.159.352z" fill="#b7b6b6"/><path d="M355.2717 83.7817l.156-.345-.832-.372-.156.345z" fill="#b6b5b5"/><path d="M355.2717 83.7818l.153-.338-.832-.372-.153.338z" fill="#b5b4b4"/><path d="M355.2716 83.7819l.15-.331-.832-.373-.15.332z" fill="#b4b3b3"/><path d="M355.2715 83.782l.147-.324-.832-.373-.147.325z" fill="#b4b2b3"/><path d="M355.2714 83.7821l.144-.317-.832-.373-.144.318z" fill="#b3b1b2"/><path d="M355.2714 83.7822l.141-.31-.832-.373-.141.311z" fill="#b2b0b1"/><path d="M355.2713 83.7823l.138-.303-.832-.373-.138.304z" fill="#b1b0b0"/><path d="M355.2712 83.7824l.135-.297-.832-.372-.135.297z" fill="#b0afaf"/><path d="M355.2711 83.7825l.132-.29-.832-.372-.132.29z" fill="#afaeae"/><path d="M355.271 83.7826l.129-.283-.832-.372-.129.283z" fill="#aeadad"/><path d="M355.2709 83.7827l.126-.276-.832-.372-.126.276z" fill="#aeacac"/><path d="M355.2708 83.7828l.123-.269-.833-.372-.122.269z" fill="#adabac"/><path d="M355.2707 83.7829l.12-.262-.832-.372-.12.262z" fill="#acaaab"/><path d="M355.2706 83.783l.117-.255-.833-.373-.116.256z" fill="#abaaaa"/><path d="M355.2705 83.7831l.114-.248-.833-.373-.113.249z" fill="#aaa9a9"/><path d="M355.2705 83.7832l.111-.241-.833-.373-.11.242z" fill="#a9a8a8"/><path d="M355.2704 83.7833l.108-.234-.833-.373-.107.235z" fill="#a9a7a7"/><path d="M355.2703 83.7834l.104-.227-.832-.373-.104.228z" fill="#a8a6a6"/><path d="M355.2702 83.7835l.102-.221-.833-.372-.101.221z" fill="#a7a5a6"/><path d="M355.2701 83.7836l.098-.214-.832-.372-.098.213z" fill="#a6a4a5"/><path d="M355.27 83.7837l.095-.207-.832-.372-.095.207z" fill="#a5a4a4"/><path d="M355.2699 83.7838l.092-.2-.832-.372-.092.2z" fill="#a4a3a3"/><path d="M355.2698 83.7839l.089-.193-.832-.372-.089.193z" fill="#a3a2a2"/><path d="M355.2697 83.784l.086-.186-.832-.372-.086.186z" fill="#a3a1a1"/><path d="M325.0158 32.521l-.352.947.857.312.352-.947z" fill="#888687"/><path d="M325.0195 32.516l-.346.927.856.312.343-.922z" fill="#898787"/><path d="M325.0233 32.5116l-.341.907.857.312.334-.898z" fill="#8a8888"/><path d="M325.027 32.5066l-.336.888.857.312.325-.874z" fill="#8b8989"/><path d="M325.0308 32.5017l-.33.869.857.311.316-.85z" fill="#8c898a"/><path d="M325.0345 32.4972l-.325.848.857.312.307-.825z" fill="#8c8a8b"/><path d="M325.0383 32.4923l-.319.829.856.312.299-.802z" fill="#8d8b8b"/><path d="M325.042 32.4878l-.314.809.857.312.289-.778z" fill="#8e8c8c"/><path d="M325.0458 32.4829l-.309.789.857.313.28-.754z" fill="#8f8d8d"/><path d="M325.0495 32.4784l-.303.77.857.312.271-.73z" fill="#908e8e"/><path d="M325.0533 32.4735l-.298.75.857.312.262-.705z" fill="#908e8f"/><path d="M325.057 32.4686l-.292.731.857.312.253-.681z" fill="#918f90"/><path d="M325.0608 32.4641l-.287.711.857.312.244-.657z" fill="#929091"/><path d="M325.0645 32.4592l-.281.692.856.311.236-.632z" fill="#939192"/><path d="M325.0682 32.4547l-.276.672.857.312.226-.609z" fill="#949292"/><path d="M325.072 32.4498l-.271.652.857.312.217-.584z" fill="#959393"/><path d="M325.0758 32.4448l-.265.633.857.312.208-.561z" fill="#959394"/><path d="M325.0795 32.4404l-.26.613.857.312.199-.536z" fill="#969495"/><path d="M325.0833 32.4354l-.254.594.857.312.19-.513z" fill="#979596"/><path d="M325.087 32.431l-.249.573.857.313.181-.489z" fill="#989696"/><path d="M325.0907 32.426l-.243.554.856.312.173-.464z" fill="#999797"/><path d="M325.0945 32.4211l-.238.535.857.312.163-.441z" fill="#9a9898"/><path d="M325.0982 32.4166l-.232.515.856.312.155-.416z" fill="#9a9899"/><path d="M325.102 32.4117l-.227.495.857.313.145-.393z" fill="#9b999a"/><path d="M325.1057 32.4072l-.222.476.857.312.137-.368z" fill="#9c9a9b"/><path d="M325.6232 31.7029l-.593.719.8.463.501-.607z" fill="#9c9a9b"/><path d="M325.6239 31.7023l-.588.713.8.464.496-.602z" fill="#9b999a"/><path d="M325.6245 31.7014l-.583.707.799.467.492-.598z" fill="#9a9899"/><path d="M325.6251 31.7009l-.578.701.798.468.488-.593z" fill="#999898"/><path d="M325.6256 31.6999l-.573.695.797.47.484-.588z" fill="#989797"/><path d="M325.6263 31.6994l-.568.689.796.471.48-.582z" fill="#989696"/><path d="M325.6269 31.6984l-.562.683.794.473.477-.578z" fill="#979596"/><path d="M325.6275 31.6979l-.558.676.795.476.472-.573z" fill="#969495"/><path d="M325.6281 31.6969l-.552.67.793.477.468-.567z" fill="#959394"/><path d="M325.6287 31.6964l-.547.664.792.479.464-.563z" fill="#949293"/><path d="M325.6293 31.6954l-.542.658.791.481.46-.558z" fill="#939192"/><path d="M325.6299 31.6949l-.537.652.79.482.457-.553z" fill="#939191"/><path d="M325.6305 31.694l-.532.646.79.484.452-.548z" fill="#929090"/><path d="M325.6311 31.6935l-.527.639.789.487.448-.544z" fill="#918f8f"/><path d="M325.6317 31.6925l-.522.633.788.489.444-.539z" fill="#908e8f"/><path d="M325.6323 31.692l-.517.627.787.49.44-.533z" fill="#8f8d8e"/><path d="M325.6329 31.691l-.512.621.786.492.436-.529z" fill="#8e8c8d"/><path d="M325.6335 31.6905l-.507.614.785.494.433-.523z" fill="#8d8b8c"/><path d="M325.6342 31.69l-.502.608.785.496.428-.519z" fill="#8d8b8b"/><path d="M325.6348 31.689l-.497.602.784.498.424-.514z" fill="#8c8a8a"/><path d="M325.6353 31.688l-.492.596.783.499.42-.508z" fill="#8b8989"/><path d="M325.636 31.6875l-.487.59.782.501.416-.504z" fill="#8a8888"/><path d="M325.6366 31.687l-.482.584.781.503.413-.5z" fill="#898787"/><path d="M325.6372 31.686l-.477.578.78.505.409-.495z" fill="#888687"/><path d="M325.6378 31.6855l-.472.571.78.507.404-.489z" fill="#888586"/><path d="M325.6384 31.6846l-.467.566.779.508.4-.485z" fill="#878485"/><path d="M325.639 31.6836l-.462.56.778.51.396-.48z" fill="#868484"/><path d="M325.6396 31.6831l-.457.553.777.512.392-.474z" fill="#858383"/><path d="M325.6402 31.6826l-.452.547.776.513.389-.469z" fill="#848282"/><path d="M325.6408 31.6816l-.447.541.775.515.385-.464z" fill="#838181"/><path d="M325.6414 31.6811l-.442.534.774.518.381-.46z" fill="#828081"/><path d="M325.642 31.6801l-.437.528.774.52.376-.455z" fill="#817f80"/><path d="M325.6426 31.6796l-.432.522.773.521.372-.45z" fill="#817e7f"/><path d="M325.6432 31.6786l-.427.516.772.523.369-.445z" fill="#807e7e"/><path d="M325.6439 31.6781l-.422.51.771.525.365-.44z" fill="#7f7d7d"/><path d="M325.6444 31.6771l-.417.504.77.526.361-.435z" fill="#7e7c7c"/><path d="M325.6451 31.6767l-.412.497.77.529.356-.43z" fill="#7d7b7b"/><path d="M325.6457 31.6757l-.407.491.769.531.352-.425z" fill="#7c7a7b"/><path d="M325.6463 31.6752l-.402.485.768.532.348-.42z" fill="#7b797a"/><path d="M325.6469 31.6742l-.397.479.767.534.345-.415z" fill="#7b7879"/><path d="M325.6475 31.6737l-.392.473.766.535.341-.41z" fill="#7a7778"/><path d="M325.6481 31.6727l-.387.467.765.537.337-.405z" fill="#797777"/><path d="M325.6487 31.6722l-.382.46.765.54.332-.401z" fill="#787676"/><path d="M325.6493 31.6712l-.377.454.764.542.328-.396z" fill="#777575"/><path d="M325.6499 31.6707l-.372.448.763.543.324-.391z" fill="#767475"/><path d="M325.6505 31.6697l-.367.442.762.545.321-.386z" fill="#767374"/><path d="M325.6511 31.6692l-.362.436.761.547.317-.381z" fill="#757273"/><path d="M325.6517 31.6682l-.357.43.76.548.313-.375z" fill="#747172"/><path d="M325.6523 31.6678l-.352.424.76.55.308-.371z" fill="#737071"/><path d="M325.6529 31.6668l-.347.418.759.552.304-.366z" fill="#726f70"/><path d="M325.6535 31.6663l-.342.411.758.554.301-.361z" fill="#716f6f"/><path d="M325.6542 31.6653l-.337.405.757.556.297-.356z" fill="#706e6e"/><path d="M325.6548 31.6648l-.332.399.756.558.293-.352z" fill="#706d6e"/><path d="M325.6553 31.6638l-.327.393.755.56.289-.347z" fill="#6f6c6d"/><path d="M325.656 31.6633l-.322.387.755.561.284-.342z" fill="#6e6b6c"/><path d="M325.6566 31.6623l-.317.381.754.563.28-.337z" fill="#6d6a6b"/><path d="M325.6572 31.6618l-.312.374.753.565.277-.331z" fill="#6c696a"/><path d="M325.6578 31.6608l-.307.368.752.567.273-.327z" fill="#6b6869"/><path d="M325.6584 31.6603l-.302.362.751.569.269-.322z" fill="#6a6868"/><path d="M325.659 31.6593l-.297.356.75.57.265-.317z" fill="#6a6768"/><path d="M325.6596 31.6589l-.292.349.75.573.26-.312z" fill="#696667"/><path d="M325.6602 31.6579l-.287.344.749.574.257-.308z" fill="#686566"/><path d="M325.6609 31.6574l-.282.337.748.576.253-.302z" fill="#676465"/><path d="M325.6614 31.6564l-.277.331.747.578.249-.297z" fill="#666364"/><path d="M325.662 31.6559l-.272.325.746.58.245-.293z" fill="#656263"/><path d="M325.6626 31.6549l-.267.319.745.582.241-.288z" fill="#646262"/><path d="M325.6633 31.6544l-.262.312.745.584.236-.283z" fill="#636161"/><path d="M325.6638 31.6534l-.257.306.744.586.233-.278z" fill="#636060"/><path d="M325.6645 31.6529l-.251.301.742.586.229-.273z" fill="#625f60"/><path d="M325.6651 31.6519l-.246.295.741.588.225-.268z" fill="#615e5f"/><path d="M325.6657 31.6514l-.241.288.74.591.221-.264z" fill="#605d5e"/><path d="M325.6663 31.6505l-.236.282.739.592.217-.258z" fill="#5f5c5d"/><path d="M325.6669 31.65l-.231.276.739.594.213-.253z" fill="#5e5b5c"/><path d="M325.6675 31.649l-.226.27.738.596.209-.249z" fill="#5e5b5b"/><path d="M325.6681 31.6485l-.221.263.737.599.205-.244z" fill="#5d5a5a"/><path d="M325.6687 31.6475l-.216.258.736.599.201-.238z" fill="#5c595a"/><path d="M325.6693 31.647l-.211.251.735.602.197-.234z" fill="#5b5859"/><path d="M325.6699 31.646l-.206.245.734.604.193-.229z" fill="#5a5758"/><path d="M325.6705 31.6455l-.201.239.734.605.189-.224z" fill="#595657"/><path d="M325.6711 31.6445l-.196.233.733.607.185-.219z" fill="#585556"/><path d="M325.6717 31.644l-.191.226.732.609.181-.214z" fill="#585555"/><path d="M325.6723 31.643l-.186.22.731.611.177-.209z" fill="#575454"/><path d="M325.6729 31.6425l-.181.214.73.613.173-.204z" fill="#565354"/><path d="M325.6736 31.6416l-.176.208.729.615.17-.2z" fill="#555253"/><path d="M325.6741 31.6411l-.171.202.729.616.165-.194z" fill="#545152"/><path d="M325.6747 31.6401l-.166.196.728.618.161-.189z" fill="#535051"/><path d="M325.6754 31.6396l-.161.189.727.621.157-.185z" fill="#534f50"/><path d="M325.676 31.6386l-.156.183.726.622.153-.179z" fill="#524e4f"/><path d="M325.6765 31.6381l-.151.177.725.624.149-.175z" fill="#514e4e"/><path d="M325.6772 31.6371l-.146.172.724.625.146-.17z" fill="#504d4d"/><path d="M325.6778 31.6366l-.141.165.724.627.141-.165z" fill="#4f4c4d"/><path d="M326.3671 32.2926l.699-.397-.14-.905-1.074.549z" fill="#676465"/><path d="M326.3669 32.2926l.686-.391-.153-.9-1.055.544z" fill="#666464"/><path d="M326.3666 32.2926l.674-.385-.167-.894-1.037.538z" fill="#656363"/><path d="M326.3664 32.2926l.661-.378-.18-.889-1.019.531z" fill="#656263"/><path d="M326.3661 32.2926l.648-.372-.193-.884-1 .526z" fill="#646162"/><path d="M326.3659 32.2926l.635-.366-.205-.879-.983.52z" fill="#636061"/><path d="M326.3656 32.2931l.622-.36-.218-.874-.965.515z" fill="#625f60"/><path d="M326.3654 32.2931l.609-.354-.231-.868-.946.508z" fill="#615e5f"/><path d="M326.3651 32.2931l.596-.348-.244-.863-.928.503z" fill="#615e5e"/><path d="M326.3649 32.2931l.583-.342-.257-.858-.91.498z" fill="#605d5e"/><path d="M326.3646 32.2931l.57-.336-.269-.852-.892.491z" fill="#5f5c5d"/><path d="M326.3643 32.2936l.557-.33-.282-.847-.874.485z" fill="#5e5b5c"/><path d="M326.3641 32.2936l.545-.324-.296-.842-.856.48z" fill="#5d5a5b"/><path d="M326.3639 32.2936l.532-.317-.309-.837-.837.473z" fill="#5c595a"/><path d="M326.3636 32.2936l.519-.311-.322-.832-.819.468z" fill="#5c5959"/><path d="M326.3633 32.2936l.506-.305-.334-.827-.802.463z" fill="#5b5858"/><path d="M326.3631 32.2936l.493-.299-.347-.821-.783.456z" fill="#5a5758"/><path d="M326.3629 32.2941l.48-.293-.36-.816-.765.451z" fill="#595657"/><path d="M326.3626 32.2941l.467-.287-.373-.81-.746.444z" fill="#585556"/><path d="M326.3623 32.2941l.454-.281-.386-.805-.728.439z" fill="#575455"/><path d="M326.3621 32.2941l.441-.275-.398-.8-.711.433z" fill="#565354"/><path d="M326.3618 32.2941l.428-.268-.411-.795-.692.427z" fill="#565353"/><path d="M326.3616 32.2941l.416-.262-.425-.79-.674.422z" fill="#555253"/><path d="M326.3613 32.2945l.403-.257-.438-.784-.656.416z" fill="#545152"/><path d="M326.3611 32.2945l.39-.251-.451-.778-.637.41z" fill="#535051"/><path d="M326.3608 32.2945l.377-.244-.463-.774-.62.404z" fill="#524f50"/><path d="M326.3606 32.2945l.364-.238-.476-.768-.602.397z" fill="#514e4f"/><path d="M326.3603 32.2945l.351-.232-.489-.763-.583.392z" fill="#514e4e"/><path d="M326.3601 32.2945l.338-.226-.502-.758-.565.387z" fill="#504d4d"/><path d="M326.3598 32.295l.325-.22-.515-.753-.547.381z" fill="#4f4c4d"/></g><path d="M327.61 83.868c-.848 0-1.542-.694-1.542-1.541V33.908c0-.847.694-1.54 1.542-1.54h25.116c.848 0 1.541.693 1.541 1.54v48.419c0 .847-.693 1.541-1.541 1.541z" fill="url(#h)" transform="matrix(1.25 0 0 -1.25 -405.7363 106.6687)"/><g clip-path="url(#i)" transform="matrix(1.25 0 0 -1.25 -405.7363 106.6687)" fill-rule="evenodd"><path d="M354.1973 34.0934v48.004c0 .833-.596 1.561-1.608 1.561h-24.73c-.823 0-1.581-.729-1.581-1.561v-48.004c0-.869.672-1.656 1.581-1.656h24.73c.844 0 1.608.596 1.608 1.656m-11.93 33.676h-3.971v-8.014a10.592 10.592 0 00-1.567-.594c-.276-.084-.585-.153-.906-.215v8.466s.072 1.215-.607 1.625v.153h6.346c.284-.345.54-.814.705-1.421m1.119-10.962c2.876 1.379 4.264 3.81 4.288 6.592.017 1.892-.648 3.054-1.397 3.672-.043.037-.09.07-.136.104-.05.224-.108.441-.18.657-.15.446-.329.855-.534 1.23.136-.018.264-.043.379-.065 2.085-.445 3.763-1.676 4.557-4.055.644-1.94.333-4.343-1.055-6.276-.329-.455-1.2-1.427-2.207-2.148-.181-.131-.292-.204-.482-.324 1.256-2.012 1.876-3.171 2.68-5.365.697-1.922 1.231-4.47 1.303-5.071.173-1.425.6-1.543.699-1.569v-.153h-5.013l-.002.153c.155.081 1.51.634 1.518 2.758.006 1.562-.375 3.281-1.068 5.207-.309.861-.916 2.248-1.491 3.301l-.016.026c-.255-.118-.616-.245-1.019-.375-.26.603-.524 1.149-.824 1.701m-5.09.171v-1.302c.38.015 1.563.11 2.63.319.242-.547.451-1.062.598-1.465l.018-.057c-.436-.071-.905-.134-1.433-.195-.715-.08-1.407-.126-1.813-.153v-8.415c0-.182.043-1.176.688-1.521v-.153h-3.849v.153c.626.33.688 1.339.688 1.521v10.819c.819.107 1.715.255 2.473.449m.533 13.607l-.539.008h-5.016v-12.34c.5.021 2.351.177 3.565.534 4.046 1.196 5.978 4.023 6.01 7.344.016 1.934-.664 3.119-1.429 3.752-.475.391-1.103.577-1.562.642-.256.054-.829.06-1.029.06m-8.074-22.533v22.178s.073 1.238-.619 1.659v.155h8.576c.717-.002 1.654-.075 2.225-.199 2.132-.452 3.842-1.707 4.653-4.136.658-1.981.34-4.434-1.076-6.404-.337-.467-1.227-1.459-2.25-2.192-.188-.135-.298-.207-.497-.332 1.284-2.057 1.919-3.234 2.736-5.475.715-1.96 1.256-4.564 1.33-5.175.178-1.455.615-1.602.713-1.632v-.157h-5.115v.157c.159.083 1.54.68 1.546 2.85.005 1.59-.381 3.344-1.087 5.31-.316.878-.934 2.292-1.523 3.369l-.017.025c-.679-.308-2.114-.727-3.047-.905-.667-.126-1.342-.23-2.175-.323-.729-.083-1.433-.13-1.854-.157v-8.616c0-.189.047-1.199.705-1.553v-.157h-3.928v.157c.64.336.704 1.364.704 1.553m-1.358-10.189h.504c.838 0 1.077.429 1.068.885-.007.51-.311.819-1.068.819h-.504zm.591 2.375c1.101 0 1.788-.582 1.788-1.522 0-.631-.329-1.101-.91-1.333.494-.325.797-.829 1.213-1.507.231-.374.366-.557.74-1.075h-.933l-.717 1.114c-.718 1.118-1.045 1.246-1.444 1.246h-.328v-2.36h-.782v5.437zm5.56-4.79c1.22 0 2.122.883 2.122 2.072 0 1.196-.902 2.072-2.122 2.072-1.213 0-2.114-.876-2.114-2.072 0-1.189.901-2.072 2.114-2.072m0 4.861c1.795 0 2.927-1.275 2.927-2.789 0-1.468-1.101-2.793-2.944-2.793-1.777 0-2.903 1.316-2.903 2.793 0 1.506 1.158 2.789 2.92 2.789m6.602-.071h.942l-2.017-2.566v-2.871h-.782v2.878l-2.017 2.559h.94l1.46-1.874zm5.584-1.212c-.67.391-1.245.566-1.875.566-1.246 0-2.169-.884-2.169-2.082 0-1.219.892-2.062 2.201-2.062.613 0 1.283.213 1.897.612v-.852c-.533-.28-1.115-.481-1.969-.481-2.042 0-2.934 1.572-2.934 2.712 0 1.657 1.249 2.87 2.981 2.87.559 0 1.125-.135 1.868-.446zm4.164.509h-2.305v-1.641h2.225v-.701h-2.225v-1.691h2.377v-.701h-3.158v5.437h3.086zm-.261 40.542c-.483.433-.952.559-1.336.559-.526 0-.901-.26-.901-.636 0-1.029 2.463-1.014 2.463-2.717 0-.84-.679-1.453-1.595-1.453-.619 0-1.088.13-1.734.582l.138.885c.419-.501.944-.775 1.505-.775.632 0 .925.376.925.674 0 1.107-2.463 1.234-2.463 2.702 0 .871.685 1.429 1.728 1.429.435 0 .87-.11 1.393-.452zm-10.624-3.484h2.408l-.105-.692h-3.082v5.358h.779zm4.485 0h2.266l-.105-.692h-2.942v5.358h.781zm-16.103 2.324h.502c.836 0 1.075.424 1.066.873-.008.502-.311.808-1.066.808h-.502zm.589 2.342c1.098 0 1.784-.573 1.784-1.501 0-.621-.327-1.084-.908-1.312.493-.322.796-.817 1.209-1.484.232-.371.367-.551.741-1.061h-.931l-.717 1.1c-.715 1.099-1.042 1.225-1.44 1.225h-.327v-2.325h-.78v5.358zm6.072-4.722c1.218 0 2.118.873 2.118 2.043 0 1.178-.9 2.042-2.118 2.042-1.209 0-2.109-.864-2.109-2.042 0-1.17.9-2.043 2.109-2.043m0 4.792c1.791 0 2.922-1.257 2.922-2.749 0-1.447-1.098-2.75-2.938-2.75-1.775 0-2.898 1.296-2.898 2.75 0 1.485 1.154 2.749 2.914 2.749m17.39-38.769h-26.417v31.031h26.417zm0 39.557v-7.728h-26.417v7.708s0 .832.83.832h24.716c.896 0 .871-.812.871-.812m-26.417-48.003s0-.883.83-.883h24.716c.869 0 .871.883.871.883v7.647h-26.417zm25.56-2.033h-24.668c-1.356 0-2.406.606-2.406 2.002v48.023c0 1.318 1.178 2.333 2.421 2.333h24.649c1.329 0 2.051-.858 2.051-2.349v-47.996c0-1.374-.576-2.013-2.047-2.013" fill="#2c2829"/><path d="M354.1273 34.1636v48.004c0 .833-.596 1.561-1.608 1.561h-24.73c-.823 0-1.581-.73-1.581-1.561v-48.004c0-.869.671-1.656 1.581-1.656h24.73c.844 0 1.608.595 1.608 1.656m-11.93 33.676h-3.971v-8.014c-.479-.227-1.002-.43-1.567-.594-.276-.084-.585-.153-.906-.215v8.466s.072 1.215-.607 1.625v.153h6.347c.283-.345.539-.814.704-1.421m1.119-10.962c2.876 1.379 4.264 3.81 4.288 6.592.017 1.892-.648 3.054-1.397 3.672-.043.037-.09.07-.136.104-.05.224-.108.441-.18.657-.15.446-.329.855-.534 1.23.136-.018.264-.043.379-.066 2.085-.444 3.763-1.675 4.557-4.054.644-1.94.333-4.343-1.055-6.276-.329-.455-1.2-1.427-2.207-2.148-.181-.131-.292-.204-.482-.324 1.256-2.012 1.876-3.171 2.68-5.365.697-1.922 1.231-4.47 1.303-5.071.173-1.425.6-1.543.699-1.569v-.153h-5.013l-.002.153c.155.08 1.51.634 1.518 2.758.006 1.562-.375 3.281-1.068 5.207-.309.861-.916 2.248-1.491 3.301l-.016.025c-.255-.117-.616-.244-1.019-.375-.26.603-.524 1.149-.824 1.702m-5.09.171v-1.302c.38.015 1.563.11 2.63.319.242-.547.451-1.062.598-1.466l.018-.056c-.436-.071-.905-.134-1.433-.195-.715-.08-1.407-.126-1.813-.153v-8.416c0-.182.043-1.175.688-1.52v-.153h-3.849v.153c.626.33.688 1.338.688 1.52v10.82c.819.107 1.715.255 2.473.449m.533 13.607l-.539.008h-5.016v-12.34c.5.021 2.351.177 3.565.534 4.046 1.196 5.978 4.023 6.01 7.344.016 1.934-.664 3.119-1.429 3.751-.475.392-1.103.578-1.562.643-.256.054-.829.06-1.029.06m-8.074-22.533v22.178s.073 1.238-.619 1.659v.155h8.575c.718-.002 1.655-.075 2.226-.199 2.132-.452 3.842-1.707 4.653-4.137.658-1.98.34-4.433-1.076-6.403-.337-.467-1.227-1.459-2.25-2.192-.188-.135-.298-.207-.497-.332 1.284-2.057 1.919-3.234 2.736-5.475.715-1.96 1.256-4.564 1.33-5.176.178-1.454.615-1.601.713-1.632v-.156h-5.115v.156c.159.084 1.54.681 1.546 2.851.005 1.59-.381 3.344-1.087 5.31-.316.878-.934 2.291-1.523 3.369l-.017.025c-.679-.308-2.115-.728-3.047-.905-.667-.126-1.342-.23-2.175-.323-.73-.083-1.433-.13-1.854-.157v-8.616c0-.189.047-1.199.705-1.554v-.156h-3.929v.156c.641.336.705 1.365.705 1.554m-1.358-10.189h.504c.838 0 1.076.429 1.068.884-.007.511-.311.82-1.068.82h-.504zm.591 2.374c1.101 0 1.787-.581 1.787-1.521 0-.631-.328-1.101-.909-1.333.494-.325.797-.829 1.213-1.507.231-.374.366-.558.74-1.075h-.933l-.717 1.114c-.718 1.118-1.045 1.245-1.444 1.245h-.328v-2.359h-.782v5.436zm5.56-4.79c1.22 0 2.122.884 2.122 2.073 0 1.196-.902 2.072-2.122 2.072-1.213 0-2.114-.876-2.114-2.072 0-1.189.901-2.073 2.114-2.073m0 4.862c1.795 0 2.927-1.275 2.927-2.789 0-1.468-1.101-2.793-2.944-2.793-1.777 0-2.903 1.315-2.903 2.793 0 1.506 1.158 2.789 2.92 2.789m6.602-.072h.942l-2.017-2.566v-2.87h-.782v2.877l-2.017 2.559h.94l1.46-1.873zm5.584-1.211c-.67.39-1.245.566-1.875.566-1.246 0-2.169-.884-2.169-2.082 0-1.219.892-2.063 2.201-2.063.613 0 1.283.214 1.897.613v-.853c-.533-.279-1.115-.48-1.969-.48-2.042 0-2.934 1.572-2.934 2.712 0 1.657 1.249 2.87 2.981 2.87.559 0 1.125-.135 1.868-.446zm4.164.509h-2.305v-1.641h2.225v-.702h-2.225v-1.69h2.377v-.701h-3.158v5.436h3.086zm-.261 40.542c-.483.433-.952.559-1.336.559-.526 0-.901-.26-.901-.636 0-1.029 2.463-1.014 2.463-2.717 0-.84-.679-1.453-1.595-1.453-.619 0-1.088.13-1.734.582l.138.885c.419-.501.944-.775 1.505-.775.632 0 .925.376.925.674 0 1.107-2.463 1.234-2.463 2.701 0 .872.685 1.43 1.728 1.43.435 0 .87-.11 1.393-.452zm-10.624-3.485h2.408l-.105-.691h-3.082v5.358h.779zm4.485 0h2.266l-.105-.691h-2.942v5.358h.781zm-16.103 2.325h.502c.836 0 1.075.424 1.066.873-.008.502-.311.808-1.066.808h-.502zm.589 2.342c1.098 0 1.784-.573 1.784-1.501 0-.621-.327-1.084-.908-1.312.493-.322.796-.817 1.209-1.484.231-.371.366-.551.741-1.061h-.932l-.716 1.1c-.715 1.099-1.042 1.225-1.44 1.225h-.327v-2.325h-.78v5.358zm6.072-4.722c1.218 0 2.117.872 2.117 2.043 0 1.178-.899 2.042-2.117 2.042-1.209 0-2.109-.864-2.109-2.042 0-1.171.9-2.043 2.109-2.043m0 4.792c1.79 0 2.922-1.257 2.922-2.749 0-1.447-1.098-2.75-2.938-2.75-1.775 0-2.898 1.296-2.898 2.75 0 1.485 1.154 2.749 2.914 2.749m17.39-38.769h-26.417v31.031h26.417zm0 39.557v-7.728h-26.417v7.707s0 .832.83.832h24.716c.896 0 .871-.811.871-.811m-26.417-48.003s0-.883.83-.883h24.716c.869 0 .871.883.871.883v7.647h-26.417zm25.56-2.432h-24.668c-1.356 0-2.406 1.005-2.406 2.4v48.024c0 1.318 1.178 2.333 2.42 2.333h24.65c1.329 0 2.375-.858 2.375-2.349v-47.996c0-1.374-.9-2.412-2.371-2.412" fill="#f2f2f2"/></g><path d="M327.865 84.522c-1.241 0-2.42-1.015-2.42-2.333V34.165c0-1.396 1.051-2.4 2.406-2.4h24.668c1.472 0 2.372 1.037 2.372 2.412v47.995c0 1.492-1.047 2.35-2.375 2.35zm-1.656-50.346v48.003c0 .832.757 1.562 1.58 1.562h24.73c1.013 0 1.679-.729 1.679-1.562V34.176c0-1.061-.734-1.727-1.679-1.727h-24.73c-.909 0-1.58.857-1.58 1.727m1.58 48.764c-.736 0-.76-.761-.76-.761v-7.708h26.347V82.2s.025.74-.871.74zm5.284-4.277c0 1.484 1.154 2.748 2.913 2.748 1.79 0 2.922-1.256 2.922-2.748 0-1.448-1.098-2.751-2.937-2.751-1.776 0-2.898 1.296-2.898 2.751m17.959-1.384c0 1.106-2.463 1.233-2.463 2.7 0 .873.685 1.43 1.728 1.43.435 0 .87-.11 1.393-.451l-.123-.799c-.483.433-.951.559-1.336.559-.526 0-.901-.26-.901-.636 0-1.029 2.464-1.013 2.464-2.717 0-.84-.68-1.453-1.596-1.453-.619 0-1.087.13-1.733.583l.137.884c.419-.501.944-.775 1.505-.775.633 0 .925.377.925.675m-6.385 4.063h.781v-4.667h2.266l-.105-.692h-2.942zm-4.483 0h.779v-4.667h2.409l-.106-.692h-3.082zm-11.619-.001h1.37c1.097 0 1.784-.573 1.784-1.501 0-.621-.328-1.084-.909-1.311.494-.323.796-.818 1.209-1.485.231-.37.366-.551.741-1.061h-.932l-.715 1.1c-.716 1.099-1.043 1.225-1.44 1.225h-.328v-2.325h-.78zm.78-.661v-1.681h.502c.836 0 1.075.424 1.066.873-.007.502-.31.808-1.066.808zm4.623-2.017c0-1.171.829-2.043 2.038-2.043 1.218 0 2.118.872 2.118 2.043 0 1.177-.9 1.971-2.118 1.971-1.209 0-2.038-.794-2.038-1.971m-6.989-36.021h26.417v31.031h-26.417zm3.021 3.938c.641.337.705 1.365.705 1.554v22.179s.073 1.237-.618 1.658v.155h8.575c.717-.002 1.654-.075 2.226-.199 2.131-.452 3.841-1.707 4.653-4.136.658-1.98.34-4.433-1.078-6.404-.335-.466-1.226-1.459-2.249-2.192-.188-.134-.298-.206-.496-.331 1.283-2.058 1.917-3.234 2.736-5.476.715-1.959 1.255-4.563 1.329-5.175.179-1.455.615-1.672.784-1.702v-.156h-5.185v.225c.157.084 1.539.681 1.545 2.851.006 1.59-.381 3.344-1.087 5.311-.315.877-.933 2.291-1.523 3.368l-.017.025c-.679-.307-2.114-.727-3.047-.905-.667-.126-1.342-.229-2.175-.323-.73-.082-1.433-.13-1.854-.157v-8.616c0-.189.117-1.269.775-1.623v-.156h-3.999zm13.337 10.309c2.875 1.38 4.263 3.81 4.287 6.592.017 1.892-.648 3.054-1.397 3.673-.043.036-.09.07-.135.104-.051.224-.108.441-.181.656-.15.446-.328.856-.534 1.23.136-.018.265-.043.379-.065 2.085-.444 3.763-1.676 4.557-4.055.644-1.939.333-4.342-1.054-6.276-.33-.455-1.201-1.427-2.208-2.148-.18-.13-.292-.203-.482-.324 1.256-2.011 1.877-3.171 2.68-5.365.697-1.922 1.232-4.47 1.303-5.07.174-1.425.6-1.614.769-1.639v-.154h-5.083l-.002.224c.155.08 1.511.634 1.518 2.757.006 1.562-.375 3.282-1.067 5.208-.31.86-.917 2.247-1.492 3.3l-.016.025c-.255-.117-.616-.244-1.019-.374-.26.603-.525 1.148-.823 1.701m-8.252-12.617c.626.329.688 1.337.688 1.52v10.819c.82.107 1.716.255 2.473.45v-1.302c.38.014 1.563.109 2.63.318.242-.547.452-1.062.599-1.465l.017-.057c-.435-.071-.905-.134-1.432-.194-.716-.08-1.408-.127-1.814-.154v-8.415c0-.183.044-1.246.758-1.59v-.154h-3.919zm-1.861 26.403v-12.34c.5.022 2.351.178 3.565.534 4.046 1.197 5.978 4.023 6.01 7.345.016 1.934-.664 3.118-1.429 3.751-.475.392-1.103.578-1.561.643-.257.053-.829.059-1.03.059l-.538.008zm2.549-3.18s.072 1.215-.607 1.624v.154h6.346c.285-.346.54-.815.705-1.422h-3.971v-8.014c-.479-.226-1.001-.429-1.567-.594-.276-.084-.585-.153-.906-.215zm-8.724-25.722v-7.577s-.07-.882.76-.882h24.716c.869 0 .871.882.871.882v7.577zm15.785-4.252c0 1.657 1.251 2.87 2.982 2.87.559 0 1.195-.164 1.938-.474v-.949c-.67.391-1.315.637-1.945.637-1.246 0-2.099-.815-2.099-2.013 0-1.219.822-2.062 2.13-2.062.614 0 1.354.213 1.968.612v-.915c-.533-.279-1.185-.488-2.039-.488-2.042 0-2.935 1.643-2.935 2.782m-10.256.081c0 1.507 1.157 2.789 2.92 2.789 1.795 0 2.997-1.275 2.997-2.789 0-1.468-1.17-2.863-3.014-2.863-1.777 0-2.903 1.386-2.903 2.863m9.522 2.718h1.013l-2.018-2.566v-2.941h-.782v.07h-.07v2.877l-2.017 2.56h.94l1.461-1.874zm-13.535 0h1.373c1.101 0 1.858-.581 1.858-1.522 0-.631-.436-1.265-.979-1.332.493-.326.796-.83 1.212-1.507.231-.375.437-.628.81-1.146h-.907l-.035.07h-.061l-.717 1.114c-.718 1.118-1.045 1.176-1.444 1.176h-.258v-2.36h-.782l-.001.07h-.069zm20.198-.012h3.087v-.065h.069v-.695h-2.376v-1.583h2.224v-.064h.071v-.696h-2.295v-1.644h2.377v-.043h.07v-.705h-3.158v.058h-.069zm-15.308-2.706c0-1.189.829-2.072 2.043-2.072 1.22 0 2.122.883 2.122 2.072 0 1.196-.902 2.003-2.122 2.003-1.214 0-2.043-.807-2.043-2.003m-4.038 1.977v-1.634h.434c.838 0 1.077.429 1.068.885-.007.511-.31.749-1.068.749z" fill="url(#j)" transform="matrix(1.25 0 0 -1.25 -405.7363 106.6687)"/></svg>